<?xml version="1.0" encoding="utf-8"?>
<!-- Generator: Adobe Illustrator 23.0.3, SVG Export Plug-In . SVG Version: 6.00 Build 0)  -->
<svg version="1.1" id="Layer_1" xmlns="http://www.w3.org/2000/svg" xmlns:xlink="http://www.w3.org/1999/xlink" x="0px" y="0px"
	 viewBox="0 0 196 196" style="enable-background:new 0 0 196 196;" xml:space="preserve">
<style type="text/css">
	.st0{fill:url(#SVGID_1_);}
	.st1{fill:url(#SVGID_2_);}
	.st2{fill:url(#SVGID_3_);}
	.st3{fill:url(#SVGID_4_);}
	.st4{fill:url(#SVGID_5_);}
	.st5{fill:url(#SVGID_6_);}
	.st6{fill:url(#SVGID_7_);}
	.st7{enable-background:new    ;}
	.st8{fill:url(#SVGID_10_);}
	.st9{fill:url(#SVGID_11_);}
	.st10{fill:url(#SVGID_12_);}
	.st11{fill:url(#SVGID_13_);}
	.st12{fill:url(#SVGID_14_);}
	.st13{fill:url(#SVGID_15_);}
</style>
<g>
	
		<linearGradient id="SVGID_1_" gradientUnits="userSpaceOnUse" x1="-848.1141" y1="-1804.8811" x2="-848.1141" y2="-1754.4265" gradientTransform="matrix(1 0 0 1 940.1932 1889.7412)">
		<stop  offset="0" style="stop-color:#88221D"/>
		<stop  offset="0.2303" style="stop-color:#510000"/>
		<stop  offset="0.3818" style="stop-color:#B42024"/>
		<stop  offset="0.4996" style="stop-color:#EF4441"/>
		<stop  offset="0.6485" style="stop-color:#D81F26"/>
		<stop  offset="0.7697" style="stop-color:#F69580"/>
		<stop  offset="1" style="stop-color:#600000"/>
	</linearGradient>
	<path class="st0" d="M102.7,103.2c-2.3-2.5-8.9-3.6-13.4-3.3l-2.1,0.1c1.9,0.9,3.2,1.2,5.6,3.6c2.6,2.8,3.8,7.4,3.5,13.8
		c0,0.8-0.1,1.6-0.2,2.3c0,0.2,0,0.5-0.1,0.7c-0.1,0.6-0.1,1.2-0.3,2c-0.9,4.7-3.2,9.2-7,14c-0.4,0.5-0.8,1-1.2,1.4
		c-0.2,0.2-0.3,0.3-0.5,0.4c-0.3,0.3-0.5,0.5-0.8,0.8c-0.2,0.2-0.4,0.3-0.5,0.4c-0.3,0.2-0.5,0.4-0.8,0.6c-0.2,0.1-0.4,0.2-0.6,0.4
		c-0.2,0.2-0.5,0.3-0.7,0.4c-0.2,0.1-0.4,0.2-0.6,0.3c-0.2,0.1-0.5,0.2-0.7,0.3c-0.2,0.1-0.4,0.1-0.7,0.2c-0.3,0.1-0.5,0.2-0.8,0.2
		c-0.2,0.1-0.5,0.1-0.7,0.1c-0.3,0-0.5,0.1-0.8,0.1c-0.2,0-0.5,0-0.7,0c-0.2,0-0.4,0-1,0l10.1,0.9c0.6,0,0.9,0,1.1-0.1
		c0.2,0,0.5-0.1,0.7-0.1c0.3,0,0.5-0.1,0.8-0.1c0.2,0,0.5-0.1,0.7-0.1c0.3-0.1,0.5-0.1,0.8-0.2c0.2-0.1,0.4-0.1,0.7-0.2
		c0.3-0.1,0.5-0.2,0.7-0.3c0.2-0.1,0.4-0.2,0.6-0.3c0.2-0.1,0.5-0.3,0.7-0.4c0.2-0.1,0.4-0.2,0.6-0.4c0.3-0.2,0.5-0.4,0.7-0.6
		c0.2-0.1,0.4-0.3,0.5-0.4c0.3-0.2,0.5-0.5,0.8-0.8c0.2-0.2,0.3-0.3,0.5-0.4c0.4-0.4,0.8-0.9,1.2-1.4c3.9-4.8,6.1-9.3,7-14
		c0.1-0.8,0.2-1.3,0.3-2c0-0.2,0-0.5,0.1-0.7c0.1-0.8,0.1-1.6,0.2-2.3C106.8,111.8,105.3,105.9,102.7,103.2z"/>
	<g>
		
			<linearGradient id="SVGID_2_" gradientUnits="userSpaceOnUse" x1="-833.1002" y1="-1895.5435" x2="-833.1002" y2="-1836.3218" gradientTransform="matrix(1 0 0 1 940.1932 1889.7412)">
			<stop  offset="0" style="stop-color:#88221D"/>
			<stop  offset="0.2303" style="stop-color:#510000"/>
			<stop  offset="0.3818" style="stop-color:#B42024"/>
			<stop  offset="0.4996" style="stop-color:#EF4441"/>
			<stop  offset="0.6485" style="stop-color:#D81F26"/>
			<stop  offset="0.7697" style="stop-color:#F69580"/>
			<stop  offset="1" style="stop-color:#600000"/>
		</linearGradient>
		<polygon class="st1" points="69.7,8.7 59.4,7.9 144.5,7.7 154.8,8.5 		"/>
	</g>
	<g>
		
			<linearGradient id="SVGID_3_" gradientUnits="userSpaceOnUse" x1="-886.2144" y1="-1870.8741" x2="-886.2144" y2="-1825.0233" gradientTransform="matrix(1 0 0 1 940.1932 1889.7412)">
			<stop  offset="0" style="stop-color:#88221D"/>
			<stop  offset="0.2303" style="stop-color:#510000"/>
			<stop  offset="0.3818" style="stop-color:#B42024"/>
			<stop  offset="0.4996" style="stop-color:#EF4441"/>
			<stop  offset="0.6485" style="stop-color:#D81F26"/>
			<stop  offset="0.7697" style="stop-color:#F69580"/>
			<stop  offset="1" style="stop-color:#600000"/>
		</linearGradient>
		<polygon class="st2" points="48.5,77.7 38.3,76.9 59.4,7.9 69.7,8.7 		"/>
	</g>
	<g>
		
			<linearGradient id="SVGID_4_" gradientUnits="userSpaceOnUse" x1="-893.1412" y1="-1806.4414" x2="-826.9124" y2="-1715.1531" gradientTransform="matrix(1 0 0 1 940.1932 1889.7412)">
			<stop  offset="0" style="stop-color:#88221D"/>
			<stop  offset="0.2303" style="stop-color:#510000"/>
			<stop  offset="0.3818" style="stop-color:#B42024"/>
			<stop  offset="0.4996" style="stop-color:#EF4441"/>
			<stop  offset="0.6485" style="stop-color:#D81F26"/>
			<stop  offset="0.7697" style="stop-color:#F69580"/>
			<stop  offset="1" style="stop-color:#600000"/>
		</linearGradient>
		<polygon class="st3" points="70.1,110.3 60.6,109.6 38.3,76.9 48.5,77.7 		"/>
	</g>
	
		<linearGradient id="SVGID_5_" gradientUnits="userSpaceOnUse" x1="-891.2827" y1="-1777.4612" x2="-891.2827" y2="-1743.0004" gradientTransform="matrix(1 0 0 1 940.1932 1889.7412)">
		<stop  offset="0" style="stop-color:#88221D"/>
		<stop  offset="0.2303" style="stop-color:#510000"/>
		<stop  offset="0.3818" style="stop-color:#B42024"/>
		<stop  offset="0.4996" style="stop-color:#EF4441"/>
		<stop  offset="0.6485" style="stop-color:#D81F26"/>
		<stop  offset="0.7697" style="stop-color:#F69580"/>
		<stop  offset="1" style="stop-color:#600000"/>
	</linearGradient>
	<path class="st4" d="M71.8,189.4c-1.9-0.2-3.9-0.6-5.9-1c-8.4-1.5-16.2-5.5-23.2-11.7c-7.1-6.3-10.9-16.6-11.9-32.4h0l0-0.9l0-1.1
		c0.1-4.4,1.5-8.3,4-11.6c2.7-3.5,7.3-5.4,13.5-5.6l10.8,0c1.5,0,3.3,0.1,5.5,0.2l-10.2-0.8c-2.2-0.1-4-0.2-5.5-0.2l-10.8,0
		c-6.2,0.2-10.7,2.1-13.5,5.6c-2.6,3.3-3.9,7.2-4,11.6l0,1.1l0,1h0c1,15.7,4.8,26,11.9,32.3c7,6.2,14.8,10.2,23.2,11.7
		c2,0.4,4,0.8,5.9,1c1.8,0.2,3.6,0.4,5.4,0.5c3.4,0.3,6.8,0.5,10.2,0.8C75.4,189.8,73.6,189.6,71.8,189.4z"/>
	
		<linearGradient id="SVGID_6_" gradientUnits="userSpaceOnUse" x1="-833.6229" y1="-1849.9561" x2="-833.6229" y2="-1799.9993" gradientTransform="matrix(1 0 0 1 940.1932 1889.7412)">
		<stop  offset="0" style="stop-color:#88221D"/>
		<stop  offset="0.2303" style="stop-color:#510000"/>
		<stop  offset="0.3818" style="stop-color:#B42024"/>
		<stop  offset="0.4996" style="stop-color:#EF4441"/>
		<stop  offset="0.6485" style="stop-color:#D81F26"/>
		<stop  offset="0.7697" style="stop-color:#F69580"/>
		<stop  offset="1" style="stop-color:#600000"/>
	</linearGradient>
	<path class="st5" d="M110.7,59c-0.3,0-3.5-0.1-3.8-0.1c-0.4,0-0.7,0-1.1-0.1c-0.3,0-0.6,0-1,0c-0.5,0-0.9,0-1.4,0
		c-1.2,0-2.6,0.2-4.1,0.5c-1.4,0.3-3.9,1.1-3.9,1.1l-0.2,3.9l3.6-1.3c1.2-0.4,2.3-0.8,3.4-1.1c0.9-0.1,1.1-0.1,1.4-0.2
		c0.4-0.1,0.9-0.3,1.2-0.4c1.8-0.5,3.3-0.9,4.7-1.2c1.6-0.3,2.9-0.5,4.1-0.5c0.5,0,0.9,0,1.4,0c0.3,0,0.7,0,1,0c0.4,0,0.7,0,1.1,0.1
		c0.3,0,0.5,0,0.8,0.1C114.5,59.5,114.9,59.3,110.7,59z"/>
	
		<radialGradient id="SVGID_7_" cx="-950.1048" cy="-1844.9489" r="88.7411" gradientTransform="matrix(1.2456 0 0 1.0979 1296.4551 2073.4006)" gradientUnits="userSpaceOnUse">
		<stop  offset="0" style="stop-color:#88221D"/>
		<stop  offset="0.2303" style="stop-color:#510000"/>
		<stop  offset="0.3818" style="stop-color:#B42024"/>
		<stop  offset="0.4996" style="stop-color:#EF4441"/>
		<stop  offset="0.6485" style="stop-color:#D81F26"/>
		<stop  offset="0.7697" style="stop-color:#F69580"/>
		<stop  offset="1" style="stop-color:#600000"/>
	</radialGradient>
	<path class="st6" d="M162.8,10.8c2.6,1.4,4,4.1,4,7.5l0,1c0,0.7-0.2,1.4-0.4,2.2c-0.3,0.9-0.5,1.9-0.7,2.9
		c-0.2,1.2-0.5,2.4-0.9,3.7c-0.1,0.5-0.2,0.9-0.3,1.4c-0.1,0.7-0.2,1.4-0.4,2.1c-0.6,2.6-1.2,5.1-1.8,7.4c-0.6,2.5-1.3,4.7-2.1,6.6
		c-1.2,3.3-3.2,4.7-4.7,5.3c-1.6,0.7-3.5,1-5.4,1l-1.4,0c-0.6,0-1.3-0.1-1.9-0.2l-46.1,0.1c-0.3,0.7-0.5,1.4-0.8,2
		c-0.1,0.4-0.3,0.8-0.4,1.2c-0.1,0.5-0.3,1-0.5,1.4c-0.1,0.5-0.3,1.1-0.4,1.6c-0.1,0.4-0.1,0.7-0.1,0.7l-0.1,2.7l-0.2,1
		c0,0.2,0,0.3,0,0.5c1.2-0.4,2.3-0.8,3.4-1.1c0.9-0.1,1.1-0.1,1.4-0.2c0.4-0.1,0.9-0.3,1.2-0.4c1.8-0.5,3.3-0.9,4.7-1.2
		c1.6-0.3,2.9-0.5,4.1-0.5c0.5,0,0.9,0,1.4,0c0.3,0,0.7,0,1,0c0.4,0,0.7,0,1.1,0.1c0.3,0,0.6,0,0.9,0.1c0.4,0,0.7,0.1,1.1,0.1
		c0.3,0,0.6,0.1,0.9,0.1c0.3,0,0.7,0.1,1,0.2c0.3,0.1,0.6,0.1,0.9,0.2c0.3,0.1,0.7,0.1,1,0.2c0.3,0.1,0.6,0.1,0.9,0.2
		c0.3,0.1,0.7,0.2,1,0.3c0.3,0.1,0.6,0.2,0.8,0.2c0.3,0.1,0.6,0.2,1,0.3c0.3,0.1,0.5,0.2,0.8,0.3c0.3,0.1,0.6,0.3,0.9,0.4
		c0.3,0.1,0.5,0.2,0.8,0.3c0.3,0.1,0.6,0.3,0.9,0.4c0.2,0.1,0.5,0.2,0.7,0.4c0.3,0.2,0.6,0.3,0.9,0.5c0.2,0.1,0.5,0.3,0.7,0.4
		c0.3,0.2,0.6,0.4,0.9,0.6c0.2,0.1,0.4,0.3,0.7,0.4c0.3,0.2,0.6,0.4,0.9,0.7c0.2,0.2,0.4,0.3,0.6,0.4c0.3,0.2,0.6,0.5,0.8,0.7
		c0.2,0.2,0.4,0.3,0.6,0.5c0.3,0.3,0.6,0.5,0.9,0.8c0.2,0.2,0.3,0.3,0.5,0.5c0.3,0.3,0.7,0.7,1,1.1c0.7,0.8,1.1,1.3,1.6,1.8
		c6.3,7.9,10.1,16.8,11.4,26.5c0.1,1.4,0.2,2.6,0.3,3.8c0,1.3,0,2.5,0,3.7l-0.1,2.3c0,0.9-0.1,1.9-0.3,2.8c-0.5,4-1.1,7.9-1.7,11.5
		c-0.6,3.7-1.5,7.5-2.6,11.1c-1.4,4.4-3.4,9-5.8,13.6c-2.4,4.6-5.7,9.8-9.9,15.3c-3.7,4.9-8.5,9.5-14.2,13.6
		c-5.7,4-11.6,7.3-17.7,9.7c-3.4,1.4-6.9,2.4-10.3,3.1c-3.4,0.7-6.6,1.1-9.7,1.1l-2.8,0c-1.9-0.1-3.8-0.3-5.6-0.5
		c-1.9-0.2-3.9-0.6-5.9-1c-8.4-1.5-16.2-5.5-23.2-11.7c-7.1-6.3-10.9-16.6-11.9-32.4l0-0.9l0-1.1c0.1-4.4,1.5-8.3,4.1-11.6
		c2.7-3.5,7.3-5.4,13.5-5.6l10.8,0c1.5,0,3.3,0.1,5.5,0.2c4.9,0,8.1,1.2,9.7,3.7c1.2,1.8,1.8,3.2,2.5,5.5c0,0.1,0.5,1.8,0.6,2.2
		c0.4,1.8,1,3,2.1,4.2c0.3,0.4,1.9,1.6,7.5,2.2l0.8,0c0.6,0,0.8,0,1,0c0.2,0,0.5,0,0.7,0c0.3,0,0.5-0.1,0.8-0.1
		c0.2,0,0.5-0.1,0.7-0.1c0.3-0.1,0.5-0.1,0.8-0.2c0.2-0.1,0.4-0.1,0.7-0.2c0.3-0.1,0.5-0.2,0.7-0.3c0.2-0.1,0.4-0.2,0.6-0.3
		c0.2-0.1,0.5-0.3,0.7-0.4c0.2-0.1,0.4-0.2,0.6-0.4c0.3-0.2,0.5-0.4,0.7-0.6c0.2-0.1,0.4-0.3,0.5-0.4c0.3-0.2,0.5-0.5,0.8-0.8
		c0.2-0.2,0.3-0.3,0.5-0.4c0.4-0.4,0.8-0.9,1.2-1.4c3.9-4.8,6.1-9.3,7-14c0.2-0.8,0.2-1.3,0.3-2c0-0.2,0-0.5,0.1-0.7
		c0.1-0.8,0.1-1.6,0.2-2.3c0.3-6.4-0.9-11-3.5-13.8c-2.6-2.8-6-4.2-10.2-4.2c-2.8,0-5.8,0.7-9,2.1c-3.3,1.4-6.8,3.5-10.3,6.1
		l-2.6,1.9L47.8,77.7L68.9,8.6L154,8.5c0.8,0,1.6,0.1,2.5,0.3C158.8,9.1,161,9.8,162.8,10.8z"/>
	<g>
		<g class="st7">
			<defs>
				<polygon id="SVGID_8_" class="st7" points="39.2,183.9 44.5,15.8 164.8,15.8 159.5,183.9 				"/>
			</defs>
			<clipPath id="SVGID_9_">
				<use xlink:href="#SVGID_8_"  style="overflow:visible;"/>
			</clipPath>
		</g>
	</g>
	<g>
		
			<radialGradient id="SVGID_10_" cx="-959.6264" cy="-1814.1866" r="106.4491" gradientTransform="matrix(1.2456 0 0 1.0979 1296.4551 2073.4006)" gradientUnits="userSpaceOnUse">
			<stop  offset="0" style="stop-color:#FFFFFF"/>
			<stop  offset="4.291237e-02" style="stop-color:#FFFFFF"/>
			<stop  offset="0.4788" style="stop-color:#FFFFFF"/>
			<stop  offset="1" style="stop-color:#FFFFFF"/>
		</radialGradient>
		<path class="st8" d="M157.2,15.8H77.1l-19,61.2l16.7,24.8c3-2,6-3.7,9-5c3.9-1.7,7.8-2.6,11.4-2.6c5.9,0,10.8,2.1,14.6,6.1
			c3.8,4.1,5.5,10.3,5.1,18.5c0,0.9-0.1,1.9-0.2,2.9c0,0.2,0,0.4-0.1,0.6c-0.1,0.7-0.2,1.5-0.4,2.7c-1.2,5.8-3.9,11.2-8.5,17
			c-4.4,5.5-9.7,8.2-15.7,8.2c-0.2,0-0.3,0-0.5,0l-1.1,0c-5.8-0.5-9.5-1.8-11.6-4.2c-1.7-1.9-2.8-4.2-3.5-7
			c-0.1-0.2-0.4-1.5-0.5-1.7c-0.6-1.8-0.9-2.7-1.7-3.9c-0.2-0.2-1.4-0.9-4.7-0.9l-0.2,0c-2.1-0.1-3.8-0.2-5.2-0.2H50.6
			c-4.2,0.1-7,1.1-8.5,3c-1.7,2.1-2.5,4.6-2.6,7.5l0,1l0,0.5c0.8,13.7,3.9,22.8,9.6,27.9c6.1,5.5,12.9,9,20.1,10.3l0.1,0
			c1.8,0.4,3.7,0.7,5.4,0.9c1.7,0.2,3.5,0.4,5.2,0.5h2.4c2.6,0,5.4-0.3,8.4-0.9c3-0.6,6.1-1.6,9.2-2.8c5.6-2.2,11.1-5.2,16.3-9
			c5.2-3.7,9.5-7.7,12.7-12.1c4-5.2,7.1-10,9.3-14.3c2.2-4.3,4-8.5,5.4-12.5c1-3.3,1.9-6.7,2.4-10.1c0.6-3.6,1.2-7.4,1.7-11.4
			l0.1-0.3c0.1-0.5,0.2-1.1,0.2-1.7l0.1-2.3c0-1.1,0-2.2,0-3.3c0-1.1-0.1-2.2-0.2-3.2c-1.1-8.4-4.4-16.2-9.9-23.2
			c-5.2-6.7-12.2-9.9-21.5-9.9c-0.2,0-0.4,0-0.5,0l0,0c-0.8,0-1.7,0.1-2.8,0.4c-1.3,0.3-2.7,0.6-4.1,1c-0.5,0.2-0.9,0.3-1.4,0.5
			c-0.6,0.2-1.2,0.3-1.7,0.3c-1.8,0.6-4,1.3-6.5,2.2l-3.5,1.3l-0.6-3.8c-0.2-0.9-0.2-1.8-0.2-2.6c0-0.3,0-0.7,0-1.1
			C95,64.4,95,63.7,95,63.1l0.1-1.9c0-0.5,0.1-0.9,0.3-1.3l0-0.5c0-0.7,0.1-1.5,0.4-2.3c0.2-0.6,0.3-1.2,0.5-1.8l0.1-0.2
			c0.2-0.5,0.3-0.9,0.4-1.3c0.2-0.5,0.3-1.1,0.5-1.6l0-0.1c0.4-1.1,1-2.5,1.6-4.1l0.8-2.2h51.2l0.4,0.1c0.3,0.1,0.6,0.1,0.8,0.1h1.4
			c1.1,0,2.2-0.2,3.1-0.5c0.4-0.2,0.7-0.8,0.9-1.4l0.1-0.2c0.7-1.6,1.3-3.4,1.8-5.6c0.6-2.3,1.2-4.8,1.8-7.5l0-0.1
			c0.1-0.5,0.2-0.9,0.3-1.4c0.1-0.7,0.3-1.4,0.5-2.1c0.3-1.1,0.6-2.2,0.8-3.3c0.3-1.3,0.6-2.5,0.9-3.6l0-0.1c0-0.1,0.1-0.2,0.1-0.2
			l0-1c0-1.3-0.4-1.5-0.7-1.7c-1.3-0.7-2.7-1.2-4.3-1.4l-0.2,0C158.1,15.8,157.6,15.8,157.2,15.8"/>
	</g>
	<g>
		
			<radialGradient id="SVGID_11_" cx="-904.9516" cy="-1821.0944" r="91.3601" gradientTransform="matrix(1.2456 0 0 1.0979 1296.4551 2073.4006)" gradientUnits="userSpaceOnUse">
			<stop  offset="0" style="stop-color:#88221D"/>
			<stop  offset="0.2303" style="stop-color:#510000"/>
			<stop  offset="0.3818" style="stop-color:#B42024"/>
			<stop  offset="0.4996" style="stop-color:#EF4441"/>
			<stop  offset="0.6485" style="stop-color:#D81F26"/>
			<stop  offset="0.7697" style="stop-color:#F69580"/>
			<stop  offset="1" style="stop-color:#600000"/>
		</radialGradient>
		<path class="st9" d="M90.2,150.1c-0.2,0-0.3,0-0.5,0l-1.1,0c-5.8-0.5-9.5-1.9-11.6-4.2c-1.7-1.9-2.8-4.2-3.5-7
			c-0.1-0.2-0.4-1.5-0.5-1.7c-0.6-1.8-0.9-2.7-1.7-3.9c-0.2-0.2-1.4-0.9-4.7-0.9l-0.2,0c-2.1-0.1-3.8-0.2-5.2-0.2H50.6
			c-2.8,0.1-5,0.6-6.6,1.4c0.9-0.2,1.9-0.3,3-0.3h10.6c1.4,0,3.1,0.1,5.2,0.2l0.2,0c3.3,0,4.5,0.7,4.7,0.9c0.8,1.2,1.1,2.1,1.7,3.9
			c0.1,0.2,0.4,1.5,0.5,1.7c0.7,2.8,1.8,5.1,3.5,7c2.1,2.3,5.8,3.7,11.6,4.2l1.1,0c0.2,0,0.3,0,0.5,0c2.6,0,8.3,0.3,12.4-3.5
			C95.7,149.7,91.5,150.1,90.2,150.1z"/>
		
			<radialGradient id="SVGID_12_" cx="-904.9642" cy="-1821.0909" r="91.3379" gradientTransform="matrix(1.2456 0 0 1.0979 1296.4551 2073.4006)" gradientUnits="userSpaceOnUse">
			<stop  offset="0" style="stop-color:#88221D"/>
			<stop  offset="0.2303" style="stop-color:#510000"/>
			<stop  offset="0.3818" style="stop-color:#B42024"/>
			<stop  offset="0.4996" style="stop-color:#EF4441"/>
			<stop  offset="0.6485" style="stop-color:#D81F26"/>
			<stop  offset="0.7697" style="stop-color:#F69580"/>
			<stop  offset="1" style="stop-color:#600000"/>
		</radialGradient>
		<path class="st10" d="M95,61.3c0-0.5,0.1-0.9,0.3-1.3l0-0.5c0-0.7,0.2-1.5,0.4-2.3c0.2-0.6,0.3-1.2,0.5-1.8l0.1-0.2
			c0.2-0.5,0.3-0.9,0.4-1.3c0.2-0.5,0.3-1.1,0.5-1.6l0-0.1c0.4-1.1,1-2.5,1.6-4.1l0.8-2.2l-3.6,1.2l-0.8,2.2c-0.6,1.7-1.2,3-1.6,4.1
			l0,0.1c-0.2,0.5-0.4,1-0.5,1.6c-0.1,0.4-0.3,0.8-0.4,1.3l-0.1,0.2c-0.2,0.6-0.3,1.2-0.5,1.8c-0.2,0.9-0.4,1.6-0.4,2.3l0,0.5
			c-0.2,0.4-0.2,0.9-0.3,1.3l-0.1,1.9c0,0.6,0,1.3,0.1,1.9c0,0.5,0.1,0.8,0,1.1c0,0.8,0,1.7,0.2,2.6l0.6,3.8l3.6-1.2l-0.6-3.7
			c-0.2-0.9-0.2-1.8-0.2-2.6c0-0.3,0-0.7,0-1.1C95,64.4,95,63.7,95,63.1L95,61.3z"/>
		
			<radialGradient id="SVGID_13_" cx="-904.9525" cy="-1821.0918" r="91.3569" gradientTransform="matrix(1.2456 0 0 1.0979 1296.4551 2073.4006)" gradientUnits="userSpaceOnUse">
			<stop  offset="0" style="stop-color:#88221D"/>
			<stop  offset="0.2303" style="stop-color:#510000"/>
			<stop  offset="0.3818" style="stop-color:#B42024"/>
			<stop  offset="0.4996" style="stop-color:#EF4441"/>
			<stop  offset="0.6485" style="stop-color:#D81F26"/>
			<stop  offset="0.7697" style="stop-color:#F69580"/>
			<stop  offset="1" style="stop-color:#600000"/>
		</radialGradient>
		<path class="st11" d="M147.9,100c-1.1-8.4-4.2-16.2-9.7-23.2c-5.2-6.7-12.4-9.9-21.6-9.9c-0.2,0-0.4,0-0.5,0h0
			c-0.8,0-1.7,0.1-2.8,0.4c-1.3,0.3-2.7,0.6-4.1,1c-0.5,0.2-0.9,0.3-1.4,0.5c-0.6,0.2-1.2,0.3-1.7,0.3c-1,0.3-2.2,0.7-3.4,1.1
			c0.5,0,1.1-0.1,1.6-0.3c0.5-0.1,1-0.3,1.4-0.5c1.4-0.4,2.8-0.7,4.1-1c1.1-0.2,2.1-0.4,2.8-0.4l0,0c0.2,0,0.4,0,0.5,0
			c9.2,0,16.3,3.2,21.5,9.9c5.5,7,8.8,14.8,9.8,23.2c0.1,1.1,0.2,2.2,0.2,3.2c0,1.1,0,2.2,0,3.3l-0.1,2.3c0,0.6-0.1,1.1-0.2,1.7
			l0,0.3c-0.5,4-1.1,7.8-1.7,11.4c-0.6,3.4-1.4,6.8-2.4,10.1c-1.3,4-3.1,8.2-5.4,12.5c-2.2,4.3-5.4,9.1-9.3,14.3
			c-3.3,4.4-7.6,8.4-12.7,12.1c-5.2,3.7-10.7,6.7-16.3,8.9c-0.7,0.3-1.4,0.5-2.1,0.8c1.9-0.5,3.7-1.2,5.6-1.9
			c5.6-2.2,11.1-5.2,16.3-8.9c5.2-3.7,9.4-7.7,12.7-12.1c4-5.2,7.1-10,9.3-14.3c2.2-4.3,4-8.5,5.4-12.5c1-3.3,1.9-6.7,2.4-10.1
			c0.6-3.6,1.2-7.4,1.7-11.4l0.1-0.3c0.1-0.5,0.2-1.1,0.2-1.7l0.1-2.3c0-1.1,0-2.2,0-3.3C148.1,102.1,148,101.1,147.9,100z"/>
		
			<radialGradient id="SVGID_14_" cx="-904.9427" cy="-1821.0884" r="91.3645" gradientTransform="matrix(1.2456 0 0 1.0979 1296.4551 2073.4006)" gradientUnits="userSpaceOnUse">
			<stop  offset="0" style="stop-color:#88221D"/>
			<stop  offset="0.2303" style="stop-color:#510000"/>
			<stop  offset="0.3818" style="stop-color:#B42024"/>
			<stop  offset="0.4996" style="stop-color:#EF4441"/>
			<stop  offset="0.6485" style="stop-color:#D81F26"/>
			<stop  offset="0.7697" style="stop-color:#F69580"/>
			<stop  offset="1" style="stop-color:#600000"/>
		</radialGradient>
		<path class="st12" d="M85.2,96.3c-1.6,0.4-3.2,1-4.9,1.7c-2,0.8-3.9,1.9-6,3.1l0.5,0.8c3-2,6-3.7,9-5
			C84.3,96.6,84.7,96.4,85.2,96.3z"/>
		
			<radialGradient id="SVGID_15_" cx="-904.9521" cy="-1821.0896" r="91.3587" gradientTransform="matrix(1.2456 0 0 1.0979 1296.4551 2073.4006)" gradientUnits="userSpaceOnUse">
			<stop  offset="0" style="stop-color:#88221D"/>
			<stop  offset="0.2303" style="stop-color:#510000"/>
			<stop  offset="0.3818" style="stop-color:#B42024"/>
			<stop  offset="0.4996" style="stop-color:#EF4441"/>
			<stop  offset="0.6485" style="stop-color:#D81F26"/>
			<stop  offset="0.7697" style="stop-color:#F69580"/>
			<stop  offset="1" style="stop-color:#600000"/>
		</radialGradient>
		<path class="st13" d="M163.1,17.4c-1.3-0.7-2.7-1.2-4.3-1.4l-0.2,0c-0.5-0.1-1-0.2-1.4-0.2H77.1l-0.4,1.1h76.9
			c0.4,0,0.9,0.1,1.4,0.2l0.2,0c1.6,0.2,3.1,0.7,4.3,1.4c0.3,0.2,0.7,0.4,0.7,1.7l0,1c0,0,0,0.1-0.1,0.2l0,0.1
			c-0.3,1.1-0.6,2.3-0.9,3.6c-0.2,1.1-0.5,2.2-0.8,3.3c-0.2,0.7-0.3,1.4-0.5,2.1c-0.1,0.5-0.2,0.9-0.3,1.4l0,0.1
			c-0.6,2.6-1.3,5.1-1.8,7.5c-0.5,2.1-1.1,4-1.8,5.6l-0.1,0.2c-0.1,0.3-0.2,0.5-0.4,0.8c1.1,0,2.1-0.2,2.9-0.5
			c0.4-0.2,0.8-0.8,0.9-1.4l0.1-0.2c0.7-1.6,1.3-3.4,1.8-5.6c0.6-2.3,1.2-4.8,1.8-7.5l0-0.1c0.1-0.5,0.2-0.9,0.3-1.4
			c0.1-0.7,0.3-1.4,0.5-2.1c0.3-1.1,0.6-2.2,0.8-3.3c0.3-1.3,0.6-2.5,0.9-3.6l0-0.1c0-0.1,0.1-0.2,0.1-0.2l0-1
			C163.8,17.8,163.4,17.6,163.1,17.4z"/>
	</g>
</g>
</svg>
