<?xml version="1.0" encoding="utf-8"?>
<!-- Generator: Adobe Illustrator 22.0.0, SVG Export Plug-In . SVG Version: 6.00 Build 0)  -->
<svg version="1.1" id="Layer_1" xmlns="http://www.w3.org/2000/svg" xmlns:xlink="http://www.w3.org/1999/xlink" x="0px" y="0px"
	 viewBox="0 0 100 100" style="enable-background:new 0 0 100 100;" xml:space="preserve">
<style type="text/css">
	.st0{fill:none;stroke:#333333;stroke-linejoin:round;stroke-opacity:6.500000e-02;}
	.st1{fill:none;stroke:#333333;stroke-linejoin:round;stroke-opacity:0.261;}
	.st2{fill:none;stroke:#333333;stroke-linejoin:round;stroke-opacity:0.562;}
	.st3{fill:none;stroke:#333333;stroke-linejoin:round;stroke-opacity:0.924;}
	.st4{fill:none;stroke:#333333;stroke-linejoin:round;}
	.st5{fill:none;stroke:#333333;stroke-linejoin:round;stroke-opacity:0.563;}
</style>
<path class="st0" d="M44.8,95.3l-1-0.3l-1.1-0.4l-1.1-0.5l-1.2-0.6l-1.3-0.6l-1.3-0.7l-1.4-0.8L35,90.4l-1.5-1l-1.5-1l-1.6-1.1
	l-1.6-1.1L27.2,85l-1.6-1.2L24,82.5l-1.6-1.3l-1.6-1.3l-1.5-1.4l-1.5-1.4l-1.4-1.4L15,74.4L13.7,73l-1.2-1.3l-1.2-1.3l-1.1-1.3
	l-1-1.2l-0.9-1.2l-0.8-1.1l-0.7-1.1l-0.6-1l-0.6-1L5,61.7l-0.4-0.8l-0.3-0.8l-0.2-0.7L4,58.7l-0.1-0.6l0-0.5L4,57.2l0.1-0.4l0.2-0.3
	l0.3-0.3L4.9,56l0.4-0.2l0.4-0.1l0.5-0.1l0.5,0l0.5,0l0.6,0.1l0.6,0.1l0.6,0.2l0.7,0.2l0.7,0.2l0.7,0.3l0.7,0.3l0.7,0.3l0.8,0.3
	l0.8,0.4l0.8,0.4l0.8,0.4l0.8,0.4l0.8,0.5l0.8,0.5l0.8,0.5l0.8,0.5l0.8,0.5l0.8,0.5l0.8,0.6l0.8,0.6l0.8,0.6l0.8,0.6l0.8,0.6
	l0.8,0.6l0.8,0.6l0.8,0.6l0.8,0.6l0.8,0.7l0.8,0.7l0.8,0.7l0.8,0.7L33,71l0.8,0.7l0.8,0.7l0.8,0.7l0.8,0.7l0.8,0.7l0.8,0.7l0.7,0.7
	l0.7,0.7l0.7,0.7l0.7,0.7l0.7,0.7l0.7,0.7l0.7,0.7l0.7,0.7l0.6,0.7l0.6,0.7l0.6,0.7l0.6,0.7l0.6,0.7l0.5,0.7l0.5,0.7l0.5,0.7
	l0.5,0.7l0.4,0.7l0.4,0.7l0.4,0.6l0.3,0.6l0.3,0.6l0.2,0.6l0.2,0.6l0.2,0.5l0.1,0.5l0.1,0.5l0,0.5l-0.1,0.4l-0.1,0.4l-0.2,0.3
	l-0.2,0.3l-0.3,0.2l-0.4,0.2l-0.4,0.1l-0.5,0.1l-0.6,0l-0.7,0l-0.7-0.1l-0.8-0.2L44.8,95.3"/>
<path class="st1" d="M41.5,88.1l-0.7-0.3L40,87.4L39.2,87l-0.9-0.5L37.3,86l-1-0.6l-1-0.6l-1-0.7l-1.1-0.7l-1.1-0.7l-1.1-0.8
	L30,81.1l-1.1-0.9l-1.1-0.9l-1.1-0.9l-1.1-0.9l-1.1-0.9l-1.1-0.9l-1-1l-1-1l-1-0.9l-0.9-0.9L18.5,71l-0.9-0.9l-0.8-0.9l-0.8-0.9
	l-0.7-0.8l-0.7-0.8l-0.6-0.8l-0.5-0.7l-0.5-0.7l-0.4-0.7l-0.4-0.6L12,62.5L11.7,62l-0.2-0.5L11.4,61l-0.1-0.4l0-0.4l0-0.3l0.1-0.3
	l0.1-0.2l0.2-0.2l0.2-0.2l0.2-0.1l0.3-0.1l0.3,0l0.3,0l0.4,0l0.4,0.1l0.4,0.1l0.5,0.1l0.5,0.1l0.5,0.2l0.5,0.2l0.5,0.2l0.6,0.2
	l0.6,0.3l0.6,0.3l0.6,0.3l0.6,0.3l0.6,0.3l0.6,0.4l0.6,0.4l0.7,0.4l0.7,0.4l0.7,0.4l0.7,0.4l0.7,0.5l0.7,0.5l0.7,0.5l0.7,0.5
	l0.7,0.5l0.7,0.5l0.7,0.5l0.7,0.5l0.7,0.5L31,69l0.7,0.5l0.7,0.6l0.7,0.6l0.7,0.6l0.6,0.6l0.6,0.6l0.6,0.6l0.6,0.6l0.6,0.6l0.6,0.6
	l0.6,0.6l0.6,0.6l0.6,0.6l0.6,0.6l0.5,0.6l0.5,0.6l0.5,0.6l0.5,0.6l0.5,0.6l0.5,0.6l0.4,0.6l0.4,0.5l0.4,0.5l0.4,0.5l0.4,0.5
	l0.3,0.5l0.3,0.5l0.3,0.5l0.2,0.5l0.2,0.4l0.2,0.4l0.1,0.4l0.1,0.4l0.1,0.4l0,0.3l0,0.3L46.6,88l-0.1,0.2l-0.1,0.2l-0.2,0.2
	l-0.2,0.1l-0.3,0.1L45.3,89l-0.4,0l-0.4,0L44,88.9l-0.5-0.1l-0.6-0.2l-0.6-0.2L41.5,88.1"/>
<path class="st2" d="M39.9,80.9l-0.5-0.3l-0.5-0.3L38.2,80l-0.6-0.4L37,79.3l-0.7-0.4l-0.7-0.4L35,78l-0.7-0.5l-0.7-0.5l-0.7-0.5
	l-0.7-0.6l-0.7-0.6l-0.7-0.6l-0.7-0.6l-0.7-0.6l-0.7-0.6l-0.7-0.6L27,71.6L26.3,71l-0.7-0.6L25,69.7l-0.6-0.6l-0.6-0.6l-0.6-0.6
	l-0.5-0.6l-0.5-0.6l-0.5-0.5l-0.4-0.5l-0.4-0.5l-0.4-0.5L20,64.2l-0.3-0.4l-0.3-0.4L19.2,63L19,62.6l-0.2-0.3L18.8,62l-0.1-0.3
	l-0.1-0.2l0-0.2l0-0.2l0-0.2l0.1-0.1l0.1-0.1l0.1-0.1l0.2-0.1l0.2,0l0.2,0l0.2,0l0.3,0l0.3,0.1l0.3,0.1l0.3,0.1l0.3,0.1l0.4,0.2
	l0.4,0.2l0.4,0.2l0.4,0.2l0.4,0.2l0.4,0.2l0.4,0.3l0.5,0.3l0.5,0.3l0.5,0.3l0.5,0.3l0.5,0.3l0.5,0.3l0.5,0.3l0.5,0.4l0.5,0.4
	l0.5,0.4l0.5,0.4l0.5,0.4l0.5,0.4l0.5,0.4l0.5,0.4l0.5,0.4l0.5,0.4l0.5,0.4l0.5,0.4l0.5,0.4l0.5,0.4l0.5,0.4l0.5,0.4l0.5,0.4
	l0.5,0.4l0.5,0.4l0.5,0.4l0.4,0.4l0.4,0.4l0.4,0.4l0.4,0.4l0.4,0.4l0.4,0.4l0.4,0.4l0.4,0.4l0.3,0.4l0.3,0.4l0.3,0.4l0.3,0.4
	l0.3,0.4l0.3,0.4l0.2,0.3l0.2,0.3l0.2,0.3l0.2,0.3l0.1,0.3l0.1,0.3l0.1,0.2l0.1,0.2l0,0.2l0,0.2l0,0.2l-0.1,0.1l-0.1,0.1l-0.1,0.1
	l-0.2,0.1l-0.2,0l-0.2,0l-0.3,0l-0.3,0L42,81.8l-0.4-0.1l-0.4-0.1l-0.4-0.2l-0.5-0.2L39.9,80.9"/>
<path class="st3" d="M39.6,74l-0.3-0.2l-0.3-0.2l-0.4-0.2l-0.4-0.3l-0.4-0.3l-0.4-0.3l-0.4-0.3l-0.4-0.3l-0.4-0.3l-0.4-0.3l-0.4-0.3
	l-0.5-0.4l-0.5-0.4l-0.5-0.4l-0.5-0.4l-0.5-0.4l-0.5-0.4L32,68.3l-0.4-0.4l-0.4-0.4l-0.4-0.4l-0.4-0.4l-0.4-0.4L29.5,66l-0.4-0.4
	l-0.4-0.4l-0.3-0.3l-0.3-0.3l-0.3-0.3l-0.3-0.3l-0.3-0.3L27,63.4l-0.2-0.3l-0.2-0.3l-0.2-0.2l-0.2-0.2L26,62.1L25.9,62l-0.1-0.2
	l-0.1-0.2l-0.1-0.1l0-0.1l0-0.1l0-0.1l0-0.1l0.1-0.1l0.1,0l0.1,0l0.1,0l0.1,0l0.1,0l0.2,0l0.2,0.1l0.2,0.1l0.2,0.1l0.2,0.1l0.2,0.1
	l0.2,0.1l0.3,0.1l0.3,0.2l0.3,0.2l0.3,0.2l0.3,0.2l0.3,0.2l0.3,0.2l0.3,0.2l0.3,0.2l0.3,0.2l0.3,0.2l0.3,0.3l0.3,0.3l0.4,0.3
	l0.4,0.3l0.4,0.3l0.4,0.3l0.4,0.3l0.4,0.3l0.4,0.3l0.4,0.3l0.4,0.3l0.4,0.3l0.4,0.3l0.3,0.3l0.3,0.3l0.3,0.3l0.3,0.3l0.3,0.3
	l0.3,0.3l0.3,0.3l0.3,0.3l0.3,0.3l0.3,0.3l0.3,0.3l0.3,0.3l0.3,0.3l0.3,0.3l0.2,0.3l0.2,0.3l0.2,0.3l0.2,0.2l0.2,0.2l0.2,0.2
	l0.2,0.2l0.2,0.2l0.1,0.2l0.1,0.2l0.1,0.2l0.1,0.2l0.1,0.1l0,0.1l0,0.1l0,0.1l0,0.1l0,0.1l-0.1,0.1L42,75l-0.1,0l-0.1,0l-0.1,0
	l-0.2,0l-0.2-0.1l-0.2-0.1L41,74.7l-0.2-0.1l-0.3-0.1l-0.3-0.1l-0.3-0.2L39.6,74"/>
<path class="st4" d="M40.5,67.4l-0.2-0.1l-0.2-0.1L39.9,67l-0.2-0.2l-0.2-0.2l-0.2-0.2L39,66.3l-0.2-0.2l-0.2-0.2l-0.2-0.2l-0.2-0.2
	l-0.3-0.2l-0.3-0.2l-0.3-0.2L37,64.7l-0.3-0.2l-0.3-0.2l-0.3-0.2L36,63.9l-0.2-0.2l-0.2-0.2l-0.2-0.2L35.1,63l-0.2-0.2l-0.2-0.2
	l-0.2-0.2l-0.2-0.2L34,62l-0.2-0.2l-0.2-0.2l-0.2-0.2l-0.2-0.2l-0.1-0.2L33,61.1l-0.1-0.1l-0.1-0.1l-0.1-0.1l-0.1-0.1l-0.1-0.1
	l-0.1-0.1l-0.1-0.1l0-0.1l0-0.1l0,0l0,0l0,0l0,0l0,0l0,0l0.1,0l0.1,0l0.1,0l0.1,0l0.1,0l0.1,0.1l0.1,0.1l0.1,0.1l0.1,0.1l0.1,0.1
	l0.1,0.1l0.2,0.1l0.2,0.1L34,61l0.2,0.1l0.2,0.1l0.2,0.1l0.2,0.1l0.2,0.1l0.2,0.2l0.2,0.2l0.2,0.2l0.2,0.2l0.2,0.2l0.2,0.2l0.2,0.2
	l0.2,0.2l0.2,0.2l0.2,0.2l0.2,0.2l0.2,0.2l0.2,0.2l0.2,0.2l0.2,0.2l0.2,0.2l0.2,0.2l0.2,0.2l0.2,0.2l0.2,0.2l0.2,0.2l0.2,0.2
	l0.2,0.2l0.2,0.2l0.2,0.2l0.2,0.2l0.2,0.2l0.2,0.2l0.2,0.1l0.1,0.1l0.1,0.1l0.1,0.1l0.1,0.1l0.1,0.1l0.1,0.1l0.1,0.1l0.1,0.1
	l0.1,0.1l0.1,0.1l0,0.1l0,0.1l0,0.1l0,0l0,0l0,0l0,0l0,0l0,0l-0.1,0l-0.1,0l-0.1,0l-0.1,0L41.5,68L41.4,68l-0.1-0.1l-0.1-0.1
	L41,67.7l-0.2-0.1l-0.2-0.1L40.5,67.4"/>
<path class="st4" d="M42.5,61.3L42.5,61.3l-0.2-0.1l-0.1-0.1L42.1,61L42,60.9l-0.1-0.1l-0.1-0.1l-0.1-0.1l-0.1-0.1l-0.1-0.1
	l-0.1-0.1l-0.1-0.1l-0.1-0.1L41,60l-0.1-0.1l-0.1-0.1l-0.1-0.1l-0.1-0.1l-0.1-0.1l-0.1-0.1l-0.1-0.1L40,59.2l-0.1-0.1l-0.1-0.1
	L39.7,59l-0.1-0.1l-0.1-0.1l-0.1-0.1l-0.1-0.1l-0.1-0.1l-0.1-0.1l-0.1-0.1L39,58.3l-0.1-0.1l-0.1-0.1l-0.1-0.1l-0.1-0.1l-0.1,0l0,0
	l0,0l0,0l0,0l0,0l0,0l0,0l0,0l0,0l0,0l0,0l0,0l0,0l0,0l0,0l0,0l0,0l0,0l0.1,0l0.1,0l0.1,0l0.1,0.1l0.1,0.1l0.1,0.1l0.1,0.1l0.1,0.1
	l0.1,0.1l0.1,0.1l0.1,0.1l0.1,0.1l0.1,0.1l0.1,0.1l0.1,0.1l0.1,0.1l0.1,0.1l0.1,0.1l0.1,0.1l0.1,0.1l0.1,0.1l0.1,0.1l0.1,0.1
	l0.1,0.1l0.1,0.1l0.1,0.1l0.1,0.1l0.1,0.1l0.1,0.1l0.1,0.1l0.1,0.1l0.1,0.1l0.1,0.1l0.1,0.1l0.1,0.1l0.1,0.1l0.1,0.1l0.1,0.1
	l0.1,0.1l0.1,0.1L42.5,61.3l0.1,0l0.1,0.1l0.1,0.1l0.1,0.1l0.1,0.1l0.1,0l0,0l0,0l0,0l0,0l0,0l0,0l0,0l0,0l0,0l0,0l0,0l0,0l0,0l0,0
	l0,0l0,0l0,0l0,0l-0.1,0l-0.1,0l-0.1,0l-0.1-0.1l-0.1-0.1L42.5,61.3L42.5,61.3"/>
<path class="st4" d="M45.3,55.7L45.3,55.7L45.3,55.7L45.3,55.7l-0.1-0.1l0,0l0,0l0,0l0,0l0,0l0,0l0,0l0,0l0,0l0,0l0,0l0,0l0,0l0,0
	l0,0l0,0l0,0l0,0l0,0l0,0l0,0l0,0l0,0l0,0l0,0l0,0l0,0l0,0l0,0l0,0l0,0l0,0l0,0l0,0l0,0l0,0l0,0l0,0l0,0l0,0l0,0l0,0l0,0l0,0l0,0
	l0,0l0,0l0,0l0,0l0,0l0,0l0,0l0,0l0,0l0,0l0,0l0,0l0,0l0,0l0,0l0,0l0,0l0,0l0,0l0,0l0,0l0,0l0,0l0,0l0,0l0,0l0,0l0,0l0,0l0,0l0,0
	l0,0l0,0l0,0l0,0l0,0l0,0l0,0l0,0l0,0l0,0l0,0l0,0l0,0l0,0L45.3,55.7L45.3,55.7L45.3,55.7l0,0.1l0,0l0,0l0,0l0,0l0,0l0,0l0,0l0,0
	l0,0l0,0l0,0l0,0l0,0l0,0l0,0l0,0l0,0l0,0l0,0l0,0l0,0l0,0l0,0l0,0l0,0L45.3,55.7L45.3,55.7L45.3,55.7L45.3,55.7L45.3,55.7"/>
<path class="st4" d="M49,50.6L49,50.6L49,50.6L49,50.6L49,50.6L49,50.6L49,50.6L49,50.6l-0.1-0.1l0,0l0,0l0,0l0,0l0,0l0,0l0,0l0,0
	l0,0l0,0l0,0l0,0l0,0l0,0l0,0l0,0l0,0l0,0l0,0l0,0l0,0l0,0l0,0l0,0l0,0l0,0l0,0l0,0l0,0l0,0l0,0l0,0l0,0l0,0l0,0l0,0l0,0l0,0l0,0
	l0,0l0,0l0,0l0,0l0,0l0,0l0,0l0,0l0,0l0,0l0,0l0,0l0,0l0,0l0,0l0,0l0,0l0,0l0,0l0,0l0,0l0,0l0,0l0,0l0,0l0,0l0,0l0,0l0,0l0,0l0,0
	l0,0l0,0l0,0l0,0l0,0l0,0l0,0l0,0l0,0l0,0l0,0l0,0l0,0l0,0L49,50.6L49,50.6L49,50.6L49,50.6L49,50.6L49,50.6L49,50.6L49,50.6
	L49,50.6L49,50.6l0,0.1l0,0l0,0l0,0l0,0l0,0l0,0l0,0l0,0l0,0l0,0l0,0l0,0L49,50.6L49,50.6L49,50.6L49,50.6L49,50.6L49,50.6L49,50.6
	L49,50.6L49,50.6L49,50.6L49,50.6L49,50.6L49,50.6"/>
<path class="st4" d="M53.3,46.1L53.3,46.1L53.3,46.1L53.3,46.1L53.2,46l0,0l0,0l0,0l0,0l0,0l0,0l0,0l0,0l0,0l0,0l0,0l0,0l0,0l0,0
	l0,0l0,0l0,0l0,0l0,0l0,0l0,0l0,0l0,0l0,0l0,0l0,0l0,0l0,0l0,0l0,0l0,0l0,0l0,0l0,0l0,0l0,0l0,0l0,0l0,0l0,0l0,0l0,0l0,0l0,0l0,0
	l0,0l0,0l0,0l0,0l0,0l0,0l0,0l0,0l0,0l0,0l0,0l0,0l0,0l0,0l0,0l0,0l0,0l0,0l0,0l0,0l0,0l0,0l0,0l0,0l0,0l0,0l0,0l0,0l0,0l0,0l0,0
	l0,0l0,0l0,0l0,0l0,0l0,0l0,0l0,0l0,0l0,0l0,0l0,0l0,0l0,0l0,0l0,0l0,0l0,0l0,0l0,0l0,0l0,0l0,0l0,0l0,0l0,0l0,0l0,0l0,0l0,0l0,0
	l0,0l0,0l0,0l0,0l0,0l0,0l0,0l0,0l0,0l0,0l0,0l0,0l0,0L53.3,46.1L53.3,46.1L53.3,46.1L53.3,46.1"/>
<path class="st4" d="M58.3,42.3L58.3,42.3l-0.1-0.2L58.1,42L58,41.9L58,41.8l-0.1-0.1l-0.1-0.1l-0.1-0.1l-0.1-0.1l-0.1-0.1l-0.1-0.1
	l-0.1-0.1L57.2,41L57,40.9l-0.1-0.1l-0.1-0.1l-0.1-0.1l-0.1-0.1l-0.1-0.1l-0.1-0.1l-0.1-0.1l-0.1-0.1L56,40.1L55.9,40L55.8,40
	l-0.1-0.1l-0.1-0.1l-0.1-0.1l-0.1-0.1l-0.1-0.1l-0.1-0.1l-0.1,0l-0.1,0l-0.1,0l-0.1,0l-0.1,0l-0.1,0l-0.1,0l-0.1,0l-0.1,0l-0.1,0
	l-0.1,0l0,0l0,0l0,0l0,0l0,0l0,0l0,0l0,0l0,0l0,0l0,0.1l0,0.1l0,0.1l0,0.1l0,0.1l0,0.1l0,0.1l0,0.1l0,0.1l0.1,0.1l0.1,0.1l0.1,0.1
	l0.1,0.1l0.1,0.1l0.1,0.1l0.1,0.1l0.1,0.1l0.1,0.1l0.1,0.1l0.1,0.1l0.1,0.1l0.1,0.1l0.1,0.1l0.1,0.1l0.1,0.1l0.1,0.1l0.1,0.1
	l0.1,0.1L56,42l0.1,0.1l0.1,0.1l0.1,0.1l0.1,0.1l0.1,0.1l0.1,0.1l0.1,0.1l0.1,0.1l0.1,0.1l0.1,0.1l0.1,0.1l0.1,0.1l0.1,0.1l0.1,0.1
	l0.1,0l0.1,0l0.1,0l0.1,0l0.1,0l0.1,0l0.1,0l0.1,0l0.1,0l0.1,0l0.1,0l0.1,0l0.1,0l0,0l0,0l0,0l0,0l0,0l0,0l0,0l0,0l0,0l0-0.1l0-0.1
	l0-0.1l0-0.1l0-0.1l0-0.1l0-0.1l0-0.1l0-0.1L58.3,42.3L58.3,42.3"/>
<path class="st4" d="M63.9,39.2L63.8,39l-0.1-0.2l-0.1-0.2l-0.2-0.2l-0.2-0.2l-0.2-0.2l-0.2-0.2l-0.2-0.2l-0.2-0.2l-0.2-0.2
	l-0.2-0.2l-0.2-0.2l-0.2-0.2l-0.2-0.2L61.2,36l-0.2-0.2l-0.2-0.2l-0.2-0.2l-0.2-0.2L59.9,35l-0.2-0.2l-0.2-0.2l-0.2-0.2l-0.2-0.2
	l-0.2-0.1l-0.2-0.1L58.2,34L58,33.8l-0.2-0.1l-0.2-0.1l-0.2-0.1l-0.2-0.1l-0.2-0.1l-0.2-0.1l-0.2-0.1l-0.2,0l-0.2,0l-0.2,0l-0.1,0
	l-0.1,0l-0.1,0l-0.1,0l-0.1,0l-0.1,0l-0.1,0.1l-0.1,0.1l-0.1,0.1l0,0.1l0,0.1l0,0.1l0,0.1l0,0.1l0,0.1l0,0.1l0,0.1l0,0.1l0.1,0.1
	l0.1,0.2l0.1,0.2l0.1,0.2l0.1,0.2l0.1,0.2l0.1,0.2l0.1,0.2l0.1,0.2l0.1,0.2l0.1,0.2l0.1,0.2l0.2,0.2l0.2,0.2l0.2,0.2l0.2,0.2
	l0.2,0.2l0.2,0.2l0.2,0.2l0.2,0.2l0.2,0.2l0.2,0.2l0.2,0.2l0.2,0.2l0.2,0.2l0.2,0.2l0.2,0.2l0.2,0.2l0.2,0.2l0.2,0.2l0.2,0.1
	l0.2,0.1l0.2,0.1l0.2,0.1l0.2,0.1l0.2,0.1l0.2,0.1l0.2,0.1l0.2,0.1l0.2,0.1l0.2,0.1l0.2,0.1l0.2,0.1l0.2,0.1l0.2,0l0.2,0l0.2,0
	l0.2,0l0.1,0l0.1,0l0.1,0l0.1,0l0.1,0l0.1,0l0.1,0l0.1-0.1l0.1-0.1l0.1-0.1l0-0.1l0-0.1l0-0.1l0-0.1l0-0.1l0-0.1l0-0.1l0-0.1l0-0.2
	l-0.1-0.2l-0.1-0.2l-0.1-0.2L64,39.4L63.9,39.2"/>
<path class="st3" d="M70.1,36.8L70,36.5l-0.2-0.4l-0.2-0.4l-0.2-0.4L69,35l-0.3-0.4l-0.3-0.4l-0.3-0.4l-0.3-0.4l-0.4-0.4l-0.4-0.4
	l-0.4-0.4l-0.4-0.4l-0.4-0.4l-0.4-0.4l-0.4-0.4l-0.4-0.4l-0.4-0.3l-0.4-0.3l-0.4-0.3l-0.4-0.3l-0.4-0.3L62,28.6l-0.4-0.3l-0.4-0.2
	l-0.4-0.2l-0.4-0.2l-0.4-0.2l-0.4-0.2l-0.4-0.2l-0.4-0.1l-0.4-0.1L58,26.8l-0.3-0.1l-0.3-0.1l-0.3,0l-0.3,0l-0.3,0l-0.3,0l-0.2,0
	l-0.2,0.1l-0.2,0.1L55.4,27l-0.2,0.1l-0.1,0.1L55,27.3l-0.1,0.2l-0.1,0.2l-0.1,0.2l0,0.2l0,0.2l0,0.2l0,0.2l0,0.2l0,0.2l0.1,0.3
	l0.1,0.3L55,30l0.1,0.3l0.1,0.3l0.1,0.3l0.2,0.3l0.2,0.3l0.2,0.3l0.2,0.3l0.2,0.3l0.2,0.3l0.2,0.3l0.2,0.3l0.3,0.3l0.3,0.3l0.3,0.3
	l0.3,0.3l0.3,0.3l0.3,0.3l0.3,0.3l0.3,0.3l0.3,0.3l0.3,0.3l0.3,0.3l0.3,0.3l0.3,0.3l0.3,0.3l0.4,0.3l0.4,0.3l0.4,0.2l0.4,0.2
	l0.4,0.2l0.4,0.2l0.4,0.2l0.4,0.2l0.4,0.2l0.3,0.2l0.3,0.2l0.3,0.2l0.3,0.1l0.3,0.1l0.3,0.1l0.3,0.1l0.3,0.1l0.3,0.1l0.3,0.1l0.3,0
	l0.3,0l0.3,0l0.3,0l0.2,0l0.2,0l0.2,0l0.2-0.1l0.2-0.1l0.2-0.1l0.1-0.1l0.1-0.1l0.1-0.1l0.1-0.2l0.1-0.2l0.1-0.2l0-0.2l0-0.2l0-0.2
	l0-0.3l-0.1-0.3l-0.1-0.3l-0.1-0.3l-0.1-0.3l-0.1-0.3L70.1,36.8"/>
<path class="st5" d="M76.8,35.3l-0.2-0.5l-0.3-0.6L76,33.7l-0.3-0.6l-0.4-0.6l-0.4-0.6l-0.4-0.6L74,30.6L73.5,30l-0.5-0.6l-0.6-0.6
	l-0.6-0.6l-0.6-0.6L70.5,27l-0.7-0.6l-0.7-0.6l-0.7-0.6l-0.7-0.5l-0.7-0.5l-0.7-0.5l-0.7-0.5L65,22.8l-0.7-0.4L63.6,22l-0.7-0.4
	l-0.7-0.3L61.6,21L61,20.8l-0.6-0.2l-0.6-0.2l-0.6-0.2l-0.6-0.1L58,20l-0.5-0.1l-0.5,0l-0.5,0l-0.4,0L55.7,20l-0.4,0.1L55,20.2
	l-0.3,0.1l-0.3,0.2l-0.3,0.2l-0.2,0.2l-0.2,0.2l-0.2,0.3l-0.1,0.3L53.3,22l-0.1,0.3l0,0.3l0,0.3l0,0.4l0,0.4l0.1,0.4l0.1,0.4
	l0.1,0.4l0.1,0.4l0.2,0.4l0.2,0.4l0.2,0.4l0.2,0.4l0.2,0.4l0.3,0.5l0.3,0.5l0.3,0.5l0.3,0.5l0.3,0.5l0.3,0.5l0.4,0.5l0.4,0.5
	l0.4,0.5l0.4,0.4l0.4,0.4l0.4,0.4l0.4,0.4l0.4,0.4l0.5,0.4l0.5,0.4l0.5,0.4l0.5,0.4l0.5,0.4l0.5,0.4l0.5,0.4l0.5,0.4l0.5,0.4
	l0.5,0.3l0.5,0.3l0.5,0.3l0.5,0.3l0.5,0.3l0.5,0.3l0.5,0.3l0.5,0.3l0.5,0.2l0.5,0.2l0.5,0.2l0.5,0.2l0.5,0.2l0.5,0.2l0.5,0.1
	l0.5,0.1l0.5,0.1l0.4,0.1l0.4,0.1l0.4,0l0.4,0l0.4,0l0.4,0l0.4-0.1l0.3-0.1l0.3-0.1L76,41l0.3-0.2l0.2-0.2l0.2-0.2l0.2-0.2l0.2-0.3
	l0.1-0.3l0.1-0.3l0.1-0.3l0-0.4l0-0.4l0-0.4l-0.1-0.4l-0.1-0.5l-0.1-0.5L77,35.9L76.8,35.3"/>
<path class="st1" d="M84,34.9l-0.3-0.8l-0.3-0.8L83,32.5l-0.4-0.9l-0.5-0.9l-0.6-0.9l-0.6-0.9L80.2,28l-0.7-0.9l-0.8-0.9L78,25.2
	l-0.9-0.9l-0.9-0.9l-0.9-0.9l-1-0.9l-1-0.8l-1-0.8l-1-0.8l-1-0.7l-1-0.7l-1-0.7l-1-0.6l-1-0.6l-1-0.5l-1-0.5l-1-0.4l-1-0.4l-0.9-0.3
	l-0.9-0.3l-0.9-0.2l-0.8-0.2l-0.8-0.1l-0.8-0.1l-0.7,0l-0.7,0L54.9,13l-0.6,0.1l-0.6,0.2l-0.5,0.2l-0.5,0.2l-0.4,0.3l-0.4,0.3
	l-0.3,0.3L51.3,15l-0.2,0.4l-0.2,0.4l-0.2,0.4l-0.1,0.5l-0.1,0.5l0,0.5l0,0.5l0,0.5l0.1,0.6l0.1,0.6l0.1,0.6l0.2,0.6l0.2,0.6
	l0.2,0.6l0.3,0.6l0.3,0.6l0.3,0.6l0.3,0.6l0.4,0.6l0.4,0.6l0.4,0.6l0.4,0.6l0.4,0.6l0.5,0.6l0.5,0.6l0.5,0.6l0.5,0.6l0.5,0.6
	l0.5,0.6l0.5,0.6l0.6,0.6l0.6,0.6l0.6,0.6l0.6,0.5l0.6,0.5l0.6,0.5l0.6,0.5l0.6,0.5l0.6,0.5l0.6,0.5l0.7,0.5l0.7,0.5l0.7,0.4
	l0.7,0.4l0.7,0.4l0.7,0.4l0.7,0.4l0.7,0.4l0.7,0.3l0.7,0.3l0.7,0.3l0.7,0.3l0.7,0.3l0.7,0.2l0.7,0.2l0.7,0.2l0.6,0.2l0.6,0.1
	l0.6,0.1l0.6,0.1l0.6,0.1l0.6,0l0.6,0l0.6,0l0.5-0.1l0.5-0.1l0.5-0.1l0.5-0.2l0.4-0.2l0.4-0.2l0.4-0.3l0.3-0.3l0.3-0.4l0.3-0.4
	l0.2-0.4l0.2-0.5l0.1-0.5l0.1-0.5l0-0.6l0-0.6l-0.1-0.7l-0.1-0.7l-0.2-0.7L84,34.9"/>
<path class="st0" d="M91.5,35.7l-0.3-1.1l-0.4-1.1l-0.4-1.2l-0.5-1.2l-0.6-1.2l-0.7-1.3l-0.8-1.3l-0.9-1.3l-1-1.3l-1-1.3l-1.1-1.3
	l-1.2-1.3l-1.2-1.3l-1.3-1.3L78.8,17l-1.4-1.2L76,14.7l-1.4-1.1l-1.5-1l-1.5-1l-1.5-0.9l-1.5-0.8l-1.5-0.8l-1.4-0.7l-1.4-0.6
	l-1.4-0.5l-1.3-0.5l-1.3-0.4L59,6.1l-1.2-0.2l-1.1-0.1l-1.1-0.1l-1,0l-1,0.1l-0.9,0.1l-0.8,0.2l-0.8,0.3l-0.7,0.3L49.8,7l-0.6,0.4
	l-0.5,0.5l-0.4,0.5L47.9,9l-0.3,0.6l-0.3,0.6l-0.2,0.6L47,11.4l-0.1,0.7l0,0.7l0,0.7l0.1,0.7L47,15l0.1,0.8l0.2,0.8l0.2,0.8l0.3,0.8
	l0.3,0.8l0.3,0.8l0.4,0.8l0.4,0.8l0.4,0.8l0.4,0.8l0.5,0.8l0.5,0.8l0.5,0.8l0.5,0.8l0.6,0.8l0.6,0.8l0.6,0.7l0.6,0.7l0.6,0.7
	l0.6,0.7l0.7,0.7l0.7,0.7l0.7,0.7l0.7,0.7l0.7,0.7l0.7,0.7l0.7,0.7l0.8,0.6l0.8,0.6l0.8,0.6l0.8,0.6l0.8,0.6l0.8,0.6l0.8,0.6
	l0.8,0.5l0.8,0.5l0.8,0.5l0.8,0.5l0.8,0.5l0.8,0.4l0.8,0.4l0.8,0.4l0.8,0.4l0.8,0.4l0.8,0.3l0.8,0.3l0.8,0.3l0.8,0.3l0.8,0.2
	l0.8,0.2l0.8,0.2l0.8,0.1l0.8,0.1l0.8,0.1l0.8,0l0.8,0l0.7,0l0.7-0.1l0.7-0.1l0.7-0.2l0.6-0.2l0.6-0.3l0.6-0.3l0.5-0.4l0.5-0.4
	l0.4-0.5l0.4-0.5l0.3-0.6l0.3-0.6l0.2-0.7l0.2-0.8l0.1-0.8l0-0.9l0-0.9l-0.1-1L91.5,35.7"/>
</svg>
