<svg xmlns="http://www.w3.org/2000/svg" viewBox="0 0 100 100" fill="none">
    <style>
      path { vector-effect: non-scaling-stroke; }
    </style>
  <path d="M71.167,89.766 L70.159,90.020 L69.046,90.250 L67.828,90.456 L66.506,90.633 L65.085,90.782 L63.567,90.899 L61.958,90.983 L60.264,91.033 L58.491,91.047 L56.648,91.025 L54.744,90.966 L52.789,90.869 L50.793,90.734 L48.767,90.563 L46.724,90.355 L44.674,90.111 L42.631,89.833 L40.606,89.524 L38.611,89.183 L36.657,88.815 L34.755,88.421 L32.915,88.005 L31.147,87.568 L29.457,87.113 L27.855,86.645 L26.345,86.165 L24.934,85.676 L23.624,85.182 L22.420,84.684 L21.323,84.186 L20.335,83.690 L19.454,83.198 L18.682,82.712 L18.015,82.234 L17.454,81.766 L16.994,81.308 L16.633,80.864 L16.368,80.433 L16.195,80.016 L16.109,79.614 L16.108,79.228 L16.186,78.859 L16.341,78.506 L16.566,78.170 L16.859,77.852 L17.216,77.550 L17.631,77.265 L18.102,76.997 L18.625,76.747 L19.196,76.512 L19.811,76.294 L20.468,76.092 L21.163,75.906 L21.894,75.735 L22.657,75.580 L23.450,75.439 L24.271,75.312 L25.117,75.200 L25.986,75.101 L26.877,75.016 L27.786,74.944 L28.713,74.884 L29.656,74.837 L30.614,74.802 L31.584,74.779 L32.566,74.767 L33.558,74.766 L34.560,74.777 L35.569,74.798 L36.586,74.829 L37.609,74.871 L38.638,74.923 L39.670,74.985 L40.707,75.056 L41.747,75.137 L42.788,75.228 L43.831,75.328 L44.875,75.437 L45.920,75.555 L46.963,75.682 L48.005,75.818 L49.046,75.962 L50.084,76.116 L51.119,76.278 L52.149,76.449 L53.175,76.628 L54.196,76.816 L55.210,77.012 L56.218,77.217 L57.217,77.430 L58.208,77.652 L59.189,77.882 L60.159,78.121 L61.116,78.367 L62.061,78.623 L62.991,78.886 L63.906,79.158 L64.802,79.437 L65.680,79.725 L66.538,80.021 L67.373,80.325 L68.183,80.636 L68.967,80.955 L69.723,81.282 L70.447,81.615 L71.138,81.956 L71.793,82.302 L72.408,82.656 L72.982,83.014 L73.511,83.378 L73.991,83.747 L74.420,84.120 L74.793,84.496 L75.107,84.875 L75.358,85.255 L75.543,85.636 L75.657,86.017 L75.696,86.396 L75.656,86.773 L75.534,87.145 L75.326,87.511 L75.027,87.870 L74.634,88.220 L74.145,88.559 L73.555,88.885 L72.864,89.196 L72.068,89.490 L71.167,89.766 " stroke="#333333" stroke-opacity="0.065" stroke-width="1.0" />
  <path d="M64.494,85.530 L63.698,85.669 L62.833,85.792 L61.902,85.897 L60.906,85.983 L59.849,86.050 L58.732,86.096 L57.561,86.122 L56.338,86.126 L55.069,86.108 L53.758,86.068 L52.412,86.005 L51.037,85.920 L49.637,85.813 L48.221,85.683 L46.794,85.533 L45.365,85.362 L43.938,85.170 L42.523,84.960 L41.124,84.732 L39.749,84.488 L38.405,84.228 L37.097,83.954 L35.830,83.667 L34.611,83.370 L33.443,83.063 L32.331,82.748 L31.279,82.427 L30.290,82.101 L29.367,81.772 L28.512,81.442 L27.726,81.111 L27.010,80.781 L26.366,80.453 L25.793,80.129 L25.291,79.809 L24.859,79.495 L24.497,79.187 L24.204,78.887 L23.977,78.595 L23.816,78.311 L23.718,78.037 L23.681,77.773 L23.703,77.519 L23.782,77.275 L23.915,77.042 L24.100,76.821 L24.335,76.610 L24.617,76.411 L24.944,76.223 L25.313,76.047 L25.723,75.882 L26.170,75.728 L26.652,75.585 L27.169,75.454 L27.716,75.334 L28.293,75.225 L28.897,75.126 L29.527,75.038 L30.181,74.961 L30.856,74.894 L31.553,74.837 L32.268,74.790 L33.000,74.753 L33.749,74.725 L34.512,74.706 L35.288,74.697 L36.077,74.697 L36.877,74.706 L37.686,74.724 L38.505,74.750 L39.331,74.784 L40.164,74.827 L41.002,74.878 L41.846,74.937 L42.694,75.003 L43.545,75.078 L44.398,75.160 L45.252,75.249 L46.107,75.346 L46.962,75.450 L47.816,75.561 L48.668,75.680 L49.518,75.805 L50.363,75.937 L51.205,76.076 L52.041,76.222 L52.872,76.374 L53.695,76.532 L54.510,76.697 L55.317,76.869 L56.113,77.046 L56.899,77.230 L57.672,77.420 L58.433,77.615 L59.178,77.817 L59.909,78.023 L60.622,78.236 L61.317,78.453 L61.992,78.676 L62.647,78.904 L63.278,79.136 L63.885,79.373 L64.465,79.614 L65.018,79.859 L65.541,80.108 L66.032,80.360 L66.489,80.615 L66.911,80.872 L67.294,81.132 L67.638,81.393 L67.939,81.654 L68.196,81.917 L68.405,82.179 L68.566,82.441 L68.674,82.700 L68.729,82.958 L68.728,83.212 L68.669,83.463 L68.549,83.708 L68.367,83.948 L68.121,84.181 L67.809,84.406 L67.429,84.622 L66.982,84.828 L66.465,85.023 L65.878,85.206 L65.221,85.375 L64.494,85.530 " stroke="#333333" stroke-opacity="0.261" stroke-width="1.0" />
  <path d="M59.182,80.415 L58.600,80.474 L57.977,80.522 L57.313,80.560 L56.611,80.586 L55.873,80.601 L55.100,80.604 L54.295,80.595 L53.461,80.573 L52.600,80.540 L51.716,80.495 L50.812,80.437 L49.891,80.367 L48.956,80.286 L48.013,80.193 L47.063,80.089 L46.112,79.974 L45.163,79.849 L44.219,79.714 L43.285,79.569 L42.364,79.416 L41.460,79.255 L40.576,79.086 L39.715,78.912 L38.881,78.731 L38.077,78.545 L37.305,78.355 L36.567,78.161 L35.867,77.965 L35.205,77.766 L34.584,77.567 L34.005,77.367 L33.469,77.167 L32.977,76.969 L32.529,76.771 L32.128,76.576 L31.771,76.384 L31.460,76.196 L31.195,76.011 L30.975,75.830 L30.799,75.654 L30.667,75.484 L30.578,75.319 L30.531,75.159 L30.526,75.006 L30.560,74.859 L30.634,74.719 L30.745,74.585 L30.892,74.459 L31.075,74.339 L31.291,74.226 L31.540,74.121 L31.820,74.023 L32.129,73.932 L32.467,73.848 L32.831,73.772 L33.221,73.703 L33.635,73.641 L34.071,73.586 L34.529,73.538 L35.008,73.497 L35.505,73.464 L36.020,73.437 L36.552,73.417 L37.099,73.403 L37.661,73.396 L38.235,73.396 L38.822,73.402 L39.420,73.415 L40.028,73.433 L40.645,73.458 L41.270,73.489 L41.902,73.526 L42.541,73.568 L43.184,73.616 L43.833,73.670 L44.484,73.730 L45.139,73.794 L45.795,73.864 L46.452,73.939 L47.109,74.020 L47.766,74.105 L48.421,74.195 L49.073,74.289 L49.722,74.389 L50.367,74.493 L51.007,74.601 L51.641,74.714 L52.268,74.831 L52.888,74.952 L53.498,75.076 L54.099,75.205 L54.690,75.337 L55.269,75.473 L55.835,75.612 L56.388,75.755 L56.925,75.900 L57.447,76.048 L57.953,76.199 L58.440,76.352 L58.907,76.508 L59.354,76.665 L59.780,76.825 L60.183,76.986 L60.561,77.148 L60.914,77.311 L61.239,77.475 L61.537,77.639 L61.805,77.803 L62.042,77.966 L62.247,78.129 L62.419,78.291 L62.556,78.452 L62.656,78.610 L62.719,78.766 L62.744,78.919 L62.729,79.069 L62.673,79.215 L62.576,79.356 L62.436,79.493 L62.252,79.624 L62.025,79.749 L61.753,79.868 L61.436,79.980 L61.074,80.084 L60.668,80.180 L60.217,80.268 L59.721,80.346 L59.182,80.415 " stroke="#333333" stroke-opacity="0.562" stroke-width="1.0" />
  <path d="M55.168,74.728 L54.781,74.740 L54.370,74.746 L53.937,74.746 L53.482,74.740 L53.006,74.729 L52.512,74.712 L52.000,74.688 L51.473,74.659 L50.930,74.624 L50.376,74.584 L49.810,74.537 L49.235,74.486 L48.654,74.428 L48.067,74.366 L47.477,74.299 L46.886,74.227 L46.296,74.150 L45.708,74.069 L45.126,73.984 L44.550,73.896 L43.983,73.804 L43.427,73.709 L42.883,73.611 L42.354,73.511 L41.840,73.409 L41.344,73.306 L40.867,73.201 L40.410,73.095 L39.974,72.988 L39.561,72.882 L39.172,72.775 L38.807,72.669 L38.468,72.564 L38.154,72.459 L37.868,72.356 L37.608,72.255 L37.375,72.155 L37.171,72.058 L36.994,71.963 L36.844,71.871 L36.723,71.781 L36.629,71.695 L36.562,71.612 L36.522,71.532 L36.509,71.456 L36.522,71.383 L36.561,71.314 L36.624,71.249 L36.713,71.188 L36.825,71.131 L36.960,71.078 L37.118,71.029 L37.297,70.984 L37.498,70.944 L37.719,70.908 L37.959,70.876 L38.217,70.848 L38.494,70.824 L38.787,70.805 L39.097,70.790 L39.422,70.779 L39.761,70.772 L40.114,70.769 L40.480,70.770 L40.857,70.775 L41.246,70.784 L41.646,70.797 L42.054,70.814 L42.472,70.835 L42.897,70.859 L43.330,70.887 L43.769,70.918 L44.214,70.953 L44.663,70.991 L45.117,71.032 L45.574,71.077 L46.033,71.125 L46.494,71.176 L46.957,71.230 L47.419,71.286 L47.881,71.346 L48.342,71.408 L48.801,71.473 L49.257,71.540 L49.710,71.610 L50.158,71.681 L50.602,71.755 L51.040,71.832 L51.471,71.910 L51.895,71.989 L52.310,72.071 L52.717,72.154 L53.115,72.239 L53.502,72.325 L53.877,72.412 L54.241,72.500 L54.592,72.588 L54.929,72.678 L55.251,72.768 L55.559,72.859 L55.850,72.950 L56.124,73.040 L56.381,73.131 L56.619,73.221 L56.838,73.311 L57.036,73.400 L57.214,73.488 L57.370,73.575 L57.504,73.661 L57.615,73.745 L57.703,73.827 L57.765,73.908 L57.803,73.986 L57.816,74.061 L57.803,74.134 L57.763,74.204 L57.696,74.270 L57.603,74.333 L57.482,74.393 L57.333,74.448 L57.157,74.500 L56.954,74.547 L56.723,74.590 L56.465,74.628 L56.180,74.660 L55.868,74.688 L55.531,74.711 L55.168,74.728 " stroke="#333333" stroke-opacity="0.924" stroke-width="1.0" />
  <path d="M52.362,68.698 L52.135,68.689 L51.896,68.678 L51.645,68.664 L51.383,68.648 L51.111,68.629 L50.829,68.608 L50.538,68.585 L50.240,68.559 L49.934,68.531 L49.622,68.502 L49.304,68.470 L48.982,68.436 L48.657,68.400 L48.328,68.362 L47.999,68.323 L47.668,68.283 L47.338,68.240 L47.009,68.197 L46.683,68.152 L46.359,68.107 L46.040,68.060 L45.726,68.013 L45.418,67.965 L45.117,67.917 L44.824,67.868 L44.539,67.820 L44.264,67.771 L43.999,67.722 L43.745,67.674 L43.502,67.625 L43.271,67.578 L43.053,67.531 L42.848,67.485 L42.656,67.439 L42.479,67.395 L42.316,67.352 L42.167,67.310 L42.034,67.269 L41.915,67.230 L41.812,67.192 L41.725,67.156 L41.653,67.122 L41.596,67.089 L41.556,67.058 L41.530,67.029 L41.520,67.002 L41.525,66.977 L41.545,66.954 L41.580,66.933 L41.630,66.914 L41.694,66.897 L41.771,66.882 L41.863,66.870 L41.968,66.859 L42.086,66.851 L42.217,66.845 L42.359,66.840 L42.514,66.838 L42.680,66.838 L42.856,66.841 L43.044,66.845 L43.241,66.851 L43.447,66.859 L43.662,66.869 L43.886,66.882 L44.118,66.896 L44.357,66.911 L44.603,66.929 L44.855,66.949 L45.113,66.970 L45.377,66.993 L45.645,67.017 L45.917,67.043 L46.193,67.071 L46.471,67.100 L46.753,67.130 L47.036,67.162 L47.321,67.195 L47.607,67.229 L47.893,67.264 L48.179,67.300 L48.464,67.338 L48.747,67.376 L49.029,67.415 L49.309,67.455 L49.585,67.496 L49.858,67.537 L50.127,67.579 L50.391,67.621 L50.651,67.664 L50.904,67.706 L51.151,67.750 L51.392,67.793 L51.625,67.836 L51.851,67.879 L52.068,67.923 L52.277,67.965 L52.476,68.008 L52.665,68.050 L52.844,68.092 L53.013,68.133 L53.170,68.174 L53.316,68.213 L53.449,68.252 L53.570,68.290 L53.679,68.327 L53.774,68.362 L53.855,68.397 L53.923,68.430 L53.976,68.461 L54.015,68.491 L54.039,68.520 L54.048,68.547 L54.042,68.572 L54.021,68.595 L53.984,68.616 L53.932,68.635 L53.865,68.652 L53.781,68.667 L53.683,68.680 L53.569,68.691 L53.440,68.699 L53.296,68.705 L53.137,68.708 L52.964,68.709 L52.777,68.708 L52.576,68.704 L52.362,68.698 " stroke="#333333" stroke-opacity="1.000" stroke-width="1.0" />
  <path d="M50.669,62.491 L50.559,62.479 L50.444,62.466 L50.324,62.453 L50.199,62.439 L50.070,62.425 L49.936,62.409 L49.799,62.394 L49.658,62.377 L49.514,62.360 L49.367,62.343 L49.218,62.325 L49.066,62.307 L48.914,62.288 L48.760,62.269 L48.605,62.250 L48.450,62.231 L48.296,62.212 L48.141,62.192 L47.988,62.173 L47.836,62.153 L47.685,62.134 L47.537,62.114 L47.391,62.095 L47.249,62.076 L47.109,62.058 L46.973,62.040 L46.841,62.022 L46.713,62.004 L46.590,61.987 L46.472,61.971 L46.359,61.955 L46.252,61.939 L46.150,61.925 L46.055,61.911 L45.966,61.897 L45.883,61.884 L45.806,61.873 L45.737,61.861 L45.674,61.851 L45.619,61.842 L45.571,61.833 L45.529,61.825 L45.496,61.818 L45.469,61.812 L45.450,61.807 L45.438,61.803 L45.434,61.800 L45.437,61.798 L45.448,61.796 L45.465,61.796 L45.490,61.796 L45.522,61.797 L45.561,61.800 L45.606,61.803 L45.659,61.807 L45.718,61.812 L45.783,61.818 L45.854,61.824 L45.932,61.831 L46.015,61.840 L46.104,61.849 L46.198,61.858 L46.298,61.869 L46.402,61.880 L46.511,61.892 L46.624,61.904 L46.741,61.917 L46.862,61.931 L46.987,61.945 L47.115,61.960 L47.246,61.975 L47.380,61.991 L47.516,62.007 L47.654,62.023 L47.794,62.040 L47.936,62.057 L48.079,62.075 L48.222,62.092 L48.366,62.110 L48.511,62.128 L48.655,62.146 L48.799,62.164 L48.942,62.182 L49.085,62.201 L49.225,62.219 L49.365,62.237 L49.502,62.255 L49.637,62.272 L49.770,62.290 L49.900,62.307 L50.027,62.325 L50.150,62.341 L50.270,62.358 L50.385,62.374 L50.497,62.389 L50.604,62.404 L50.706,62.419 L50.803,62.433 L50.896,62.447 L50.982,62.460 L51.063,62.472 L51.138,62.484 L51.207,62.495 L51.270,62.505 L51.326,62.514 L51.376,62.523 L51.419,62.531 L51.455,62.538 L51.484,62.544 L51.506,62.550 L51.520,62.554 L51.528,62.558 L51.528,62.561 L51.521,62.562 L51.506,62.563 L51.484,62.563 L51.455,62.562 L51.418,62.560 L51.374,62.557 L51.323,62.554 L51.264,62.549 L51.199,62.543 L51.127,62.537 L51.048,62.529 L50.962,62.521 L50.870,62.512 L50.772,62.502 L50.669,62.491 " stroke="#333333" stroke-opacity="1.000" stroke-width="1.0" />
  <path d="M50.005,56.228 L49.966,56.221 L49.926,56.214 L49.884,56.207 L49.840,56.200 L49.794,56.193 L49.748,56.185 L49.699,56.178 L49.650,56.171 L49.600,56.164 L49.549,56.156 L49.497,56.149 L49.444,56.142 L49.391,56.135 L49.337,56.128 L49.283,56.121 L49.229,56.114 L49.175,56.108 L49.121,56.101 L49.068,56.095 L49.014,56.089 L48.962,56.083 L48.910,56.077 L48.859,56.072 L48.808,56.066 L48.759,56.061 L48.711,56.057 L48.664,56.052 L48.619,56.048 L48.575,56.044 L48.533,56.041 L48.493,56.038 L48.454,56.035 L48.417,56.032 L48.383,56.030 L48.350,56.028 L48.319,56.027 L48.291,56.026 L48.265,56.025 L48.242,56.025 L48.221,56.025 L48.202,56.025 L48.186,56.026 L48.172,56.027 L48.161,56.028 L48.153,56.030 L48.147,56.032 L48.144,56.034 L48.143,56.037 L48.145,56.040 L48.150,56.043 L48.157,56.047 L48.167,56.051 L48.180,56.055 L48.194,56.060 L48.212,56.064 L48.231,56.069 L48.254,56.075 L48.278,56.080 L48.305,56.086 L48.334,56.092 L48.365,56.098 L48.398,56.104 L48.433,56.111 L48.469,56.117 L48.508,56.124 L48.548,56.131 L48.590,56.138 L48.634,56.145 L48.679,56.152 L48.725,56.159 L48.772,56.166 L48.820,56.173 L48.870,56.180 L48.920,56.187 L48.971,56.194 L49.022,56.201 L49.074,56.208 L49.127,56.215 L49.179,56.222 L49.232,56.228 L49.284,56.235 L49.337,56.241 L49.389,56.247 L49.441,56.253 L49.493,56.259 L49.544,56.265 L49.594,56.270 L49.643,56.275 L49.691,56.280 L49.739,56.285 L49.785,56.289 L49.829,56.293 L49.873,56.297 L49.915,56.301 L49.955,56.304 L49.993,56.307 L50.030,56.309 L50.065,56.311 L50.098,56.313 L50.129,56.315 L50.158,56.316 L50.184,56.317 L50.209,56.318 L50.231,56.318 L50.250,56.318 L50.268,56.317 L50.282,56.316 L50.295,56.315 L50.304,56.314 L50.311,56.312 L50.316,56.310 L50.318,56.307 L50.317,56.304 L50.314,56.301 L50.308,56.297 L50.299,56.294 L50.288,56.290 L50.274,56.285 L50.258,56.280 L50.239,56.275 L50.218,56.270 L50.194,56.265 L50.168,56.259 L50.140,56.253 L50.110,56.247 L50.077,56.241 L50.042,56.234 L50.005,56.228 " stroke="#333333" stroke-opacity="1.000" stroke-width="1.0" />
  <path d="M50.307,50.000 L50.292,49.996 L50.276,49.993 L50.260,49.989 L50.242,49.985 L50.225,49.982 L50.206,49.978 L50.188,49.975 L50.168,49.971 L50.149,49.968 L50.129,49.964 L50.108,49.961 L50.087,49.958 L50.067,49.955 L50.046,49.952 L50.024,49.949 L50.003,49.947 L49.982,49.944 L49.961,49.942 L49.940,49.939 L49.919,49.937 L49.898,49.935 L49.878,49.933 L49.858,49.932 L49.838,49.930 L49.818,49.929 L49.799,49.928 L49.781,49.927 L49.763,49.926 L49.746,49.925 L49.729,49.925 L49.713,49.925 L49.697,49.925 L49.683,49.925 L49.669,49.925 L49.656,49.925 L49.644,49.926 L49.632,49.927 L49.622,49.928 L49.612,49.929 L49.604,49.930 L49.596,49.932 L49.589,49.934 L49.583,49.935 L49.579,49.937 L49.575,49.940 L49.572,49.942 L49.571,49.944 L49.570,49.947 L49.571,49.950 L49.572,49.952 L49.575,49.955 L49.578,49.958 L49.583,49.961 L49.588,49.965 L49.595,49.968 L49.602,49.971 L49.611,49.975 L49.620,49.978 L49.631,49.982 L49.642,49.985 L49.654,49.989 L49.667,49.993 L49.680,49.996 L49.695,50.000 L49.710,50.004 L49.726,50.007 L49.742,50.011 L49.760,50.015 L49.777,50.018 L49.795,50.022 L49.814,50.025 L49.833,50.029 L49.853,50.032 L49.873,50.035 L49.893,50.038 L49.913,50.042 L49.934,50.045 L49.955,50.047 L49.976,50.050 L49.997,50.053 L50.018,50.055 L50.039,50.058 L50.060,50.060 L50.080,50.062 L50.101,50.064 L50.121,50.066 L50.141,50.068 L50.161,50.069 L50.180,50.070 L50.199,50.072 L50.217,50.073 L50.235,50.073 L50.252,50.074 L50.269,50.075 L50.285,50.075 L50.300,50.075 L50.315,50.075 L50.329,50.075 L50.342,50.074 L50.355,50.074 L50.366,50.073 L50.377,50.072 L50.386,50.071 L50.395,50.069 L50.403,50.068 L50.410,50.066 L50.416,50.064 L50.420,50.062 L50.424,50.060 L50.427,50.058 L50.429,50.056 L50.430,50.053 L50.429,50.051 L50.428,50.048 L50.426,50.045 L50.423,50.042 L50.418,50.039 L50.413,50.035 L50.406,50.032 L50.399,50.029 L50.391,50.025 L50.381,50.022 L50.371,50.018 L50.360,50.015 L50.348,50.011 L50.335,50.007 L50.322,50.004 L50.307,50.000 " stroke="#333333" stroke-opacity="1.000" stroke-width="1.0" />
  <path d="M51.531,43.882 L51.493,43.870 L51.454,43.859 L51.413,43.847 L51.371,43.836 L51.326,43.825 L51.281,43.814 L51.234,43.804 L51.186,43.793 L51.137,43.784 L51.087,43.774 L51.036,43.765 L50.984,43.756 L50.932,43.748 L50.880,43.740 L50.827,43.733 L50.774,43.726 L50.721,43.720 L50.668,43.714 L50.615,43.709 L50.563,43.704 L50.511,43.700 L50.459,43.697 L50.409,43.694 L50.359,43.691 L50.310,43.690 L50.263,43.689 L50.216,43.688 L50.171,43.688 L50.128,43.689 L50.086,43.690 L50.045,43.692 L50.007,43.694 L49.970,43.697 L49.935,43.701 L49.902,43.705 L49.872,43.710 L49.843,43.715 L49.817,43.721 L49.793,43.727 L49.771,43.734 L49.752,43.741 L49.735,43.749 L49.721,43.757 L49.709,43.766 L49.700,43.775 L49.693,43.784 L49.689,43.794 L49.688,43.804 L49.689,43.815 L49.693,43.825 L49.699,43.836 L49.707,43.847 L49.719,43.859 L49.732,43.870 L49.749,43.882 L49.767,43.894 L49.788,43.906 L49.811,43.917 L49.837,43.929 L49.864,43.941 L49.894,43.953 L49.926,43.965 L49.959,43.977 L49.995,43.989 L50.032,44.000 L50.071,44.012 L50.112,44.023 L50.154,44.034 L50.198,44.045 L50.243,44.055 L50.289,44.065 L50.336,44.075 L50.384,44.085 L50.433,44.094 L50.483,44.103 L50.533,44.111 L50.584,44.119 L50.635,44.127 L50.687,44.134 L50.739,44.140 L50.791,44.146 L50.842,44.152 L50.894,44.157 L50.945,44.162 L50.996,44.166 L51.046,44.169 L51.096,44.172 L51.144,44.175 L51.192,44.177 L51.239,44.178 L51.285,44.178 L51.329,44.179 L51.372,44.178 L51.414,44.177 L51.454,44.175 L51.493,44.173 L51.530,44.170 L51.565,44.167 L51.598,44.163 L51.629,44.159 L51.658,44.154 L51.685,44.148 L51.709,44.142 L51.732,44.136 L51.752,44.129 L51.770,44.121 L51.785,44.113 L51.798,44.105 L51.808,44.096 L51.816,44.087 L51.822,44.077 L51.825,44.067 L51.825,44.057 L51.822,44.047 L51.817,44.036 L51.810,44.025 L51.800,44.013 L51.787,44.002 L51.772,43.990 L51.755,43.978 L51.735,43.966 L51.712,43.954 L51.687,43.942 L51.660,43.930 L51.631,43.918 L51.600,43.906 L51.566,43.894 L51.531,43.882 " stroke="#333333" stroke-opacity="1.000" stroke-width="1.0" />
  <path d="M53.652,37.943 L53.550,37.903 L53.442,37.864 L53.329,37.825 L53.212,37.788 L53.089,37.751 L52.963,37.716 L52.833,37.682 L52.699,37.649 L52.562,37.618 L52.422,37.588 L52.279,37.559 L52.134,37.533 L51.988,37.508 L51.840,37.485 L51.691,37.464 L51.542,37.444 L51.392,37.427 L51.243,37.412 L51.094,37.398 L50.946,37.387 L50.800,37.378 L50.656,37.371 L50.513,37.366 L50.373,37.364 L50.236,37.363 L50.103,37.365 L49.973,37.369 L49.847,37.375 L49.725,37.383 L49.607,37.393 L49.495,37.406 L49.388,37.420 L49.286,37.436 L49.189,37.455 L49.099,37.475 L49.014,37.497 L48.936,37.520 L48.865,37.546 L48.799,37.573 L48.741,37.601 L48.689,37.631 L48.645,37.662 L48.607,37.695 L48.576,37.729 L48.553,37.764 L48.536,37.799 L48.527,37.836 L48.525,37.874 L48.530,37.912 L48.542,37.952 L48.561,37.991 L48.586,38.031 L48.619,38.072 L48.658,38.112 L48.704,38.153 L48.756,38.194 L48.815,38.235 L48.879,38.276 L48.950,38.316 L49.026,38.357 L49.108,38.397 L49.196,38.436 L49.288,38.475 L49.385,38.513 L49.487,38.550 L49.594,38.587 L49.704,38.623 L49.819,38.657 L49.937,38.691 L50.058,38.724 L50.183,38.755 L50.310,38.785 L50.440,38.814 L50.573,38.841 L50.707,38.867 L50.843,38.892 L50.980,38.915 L51.118,38.936 L51.257,38.956 L51.397,38.974 L51.537,38.990 L51.676,39.004 L51.815,39.017 L51.954,39.028 L52.091,39.037 L52.227,39.044 L52.362,39.050 L52.494,39.053 L52.624,39.055 L52.752,39.054 L52.877,39.052 L52.999,39.048 L53.117,39.042 L53.232,39.034 L53.343,39.024 L53.449,39.012 L53.552,38.998 L53.649,38.983 L53.742,38.965 L53.830,38.946 L53.912,38.925 L53.988,38.903 L54.059,38.879 L54.124,38.853 L54.183,38.826 L54.235,38.797 L54.281,38.766 L54.321,38.735 L54.354,38.702 L54.380,38.668 L54.399,38.632 L54.411,38.596 L54.415,38.559 L54.413,38.520 L54.404,38.481 L54.387,38.441 L54.364,38.401 L54.333,38.360 L54.295,38.318 L54.250,38.277 L54.198,38.235 L54.140,38.193 L54.074,38.150 L54.002,38.108 L53.924,38.066 L53.839,38.025 L53.749,37.984 L53.652,37.943 " stroke="#333333" stroke-opacity="1.000" stroke-width="1.0" />
  <path d="M56.666,32.257 L56.461,32.161 L56.244,32.066 L56.015,31.973 L55.776,31.883 L55.526,31.796 L55.266,31.712 L54.998,31.631 L54.721,31.554 L54.437,31.480 L54.146,31.411 L53.849,31.346 L53.548,31.285 L53.242,31.230 L52.932,31.179 L52.621,31.133 L52.308,31.092 L51.994,31.056 L51.681,31.026 L51.370,31.001 L51.060,30.982 L50.754,30.968 L50.452,30.960 L50.154,30.958 L49.862,30.961 L49.577,30.969 L49.300,30.983 L49.030,31.003 L48.769,31.028 L48.518,31.058 L48.277,31.093 L48.047,31.133 L47.828,31.179 L47.621,31.228 L47.427,31.283 L47.245,31.341 L47.076,31.404 L46.921,31.471 L46.780,31.541 L46.653,31.615 L46.540,31.692 L46.442,31.772 L46.358,31.855 L46.289,31.941 L46.234,32.029 L46.194,32.119 L46.169,32.211 L46.158,32.304 L46.161,32.399 L46.179,32.495 L46.211,32.592 L46.257,32.689 L46.316,32.787 L46.389,32.885 L46.474,32.983 L46.573,33.080 L46.683,33.177 L46.806,33.274 L46.940,33.369 L47.086,33.463 L47.242,33.557 L47.409,33.648 L47.586,33.738 L47.772,33.826 L47.968,33.912 L48.172,33.996 L48.384,34.077 L48.604,34.156 L48.831,34.233 L49.064,34.306 L49.304,34.377 L49.549,34.444 L49.800,34.509 L50.055,34.570 L50.314,34.628 L50.577,34.682 L50.843,34.732 L51.111,34.779 L51.382,34.823 L51.653,34.862 L51.926,34.897 L52.199,34.929 L52.473,34.956 L52.745,34.979 L53.016,34.998 L53.286,35.013 L53.553,35.024 L53.818,35.030 L54.079,35.032 L54.336,35.030 L54.589,35.023 L54.838,35.013 L55.080,34.997 L55.317,34.978 L55.547,34.954 L55.771,34.925 L55.987,34.893 L56.195,34.856 L56.394,34.815 L56.585,34.770 L56.766,34.721 L56.938,34.668 L57.099,34.611 L57.249,34.551 L57.388,34.486 L57.516,34.418 L57.631,34.347 L57.734,34.272 L57.825,34.194 L57.902,34.112 L57.966,34.028 L58.016,33.942 L58.053,33.852 L58.075,33.761 L58.083,33.667 L58.076,33.571 L58.055,33.473 L58.019,33.374 L57.969,33.274 L57.903,33.172 L57.823,33.070 L57.728,32.968 L57.618,32.865 L57.494,32.762 L57.356,32.659 L57.203,32.557 L57.037,32.456 L56.858,32.356 L56.666,32.257 " stroke="#333333" stroke-opacity="1.000" stroke-width="1.0" />
  <path d="M60.581,26.916 L60.243,26.725 L59.881,26.539 L59.498,26.357 L59.093,26.180 L58.668,26.009 L58.225,25.845 L57.764,25.687 L57.287,25.537 L56.795,25.395 L56.289,25.262 L55.772,25.138 L55.245,25.024 L54.710,24.919 L54.168,24.825 L53.621,24.741 L53.071,24.669 L52.520,24.608 L51.970,24.558 L51.423,24.520 L50.880,24.493 L50.343,24.479 L49.814,24.476 L49.294,24.484 L48.786,24.505 L48.291,24.536 L47.810,24.579 L47.344,24.633 L46.896,24.698 L46.467,24.773 L46.056,24.858 L45.667,24.953 L45.299,25.058 L44.953,25.171 L44.630,25.292 L44.331,25.422 L44.057,25.559 L43.807,25.702 L43.582,25.853 L43.382,26.009 L43.208,26.170 L43.059,26.336 L42.936,26.507 L42.838,26.681 L42.765,26.859 L42.718,27.040 L42.695,27.222 L42.696,27.407 L42.722,27.592 L42.771,27.779 L42.842,27.966 L42.937,28.153 L43.053,28.339 L43.190,28.524 L43.348,28.709 L43.525,28.891 L43.722,29.071 L43.938,29.249 L44.171,29.425 L44.422,29.597 L44.688,29.766 L44.971,29.931 L45.268,30.092 L45.579,30.249 L45.904,30.402 L46.241,30.550 L46.590,30.693 L46.951,30.831 L47.321,30.964 L47.701,31.091 L48.090,31.213 L48.487,31.328 L48.891,31.438 L49.303,31.542 L49.719,31.639 L50.141,31.730 L50.568,31.814 L50.998,31.892 L51.431,31.962 L51.866,32.026 L52.303,32.083 L52.741,32.133 L53.178,32.176 L53.615,32.211 L54.051,32.239 L54.484,32.260 L54.914,32.273 L55.341,32.279 L55.764,32.277 L56.181,32.268 L56.592,32.251 L56.997,32.226 L57.394,32.193 L57.783,32.153 L58.164,32.106 L58.534,32.050 L58.894,31.987 L59.243,31.917 L59.579,31.838 L59.903,31.753 L60.213,31.660 L60.508,31.559 L60.788,31.451 L61.052,31.337 L61.300,31.215 L61.529,31.086 L61.741,30.951 L61.933,30.809 L62.105,30.661 L62.257,30.507 L62.387,30.348 L62.496,30.182 L62.582,30.012 L62.645,29.837 L62.684,29.657 L62.699,29.473 L62.690,29.285 L62.655,29.094 L62.595,28.900 L62.510,28.704 L62.398,28.505 L62.261,28.306 L62.098,28.105 L61.908,27.904 L61.693,27.704 L61.453,27.504 L61.187,27.306 L60.896,27.109 L60.581,26.916 " stroke="#333333" stroke-opacity="0.924" stroke-width="1.0" />
  <path d="M65.416,22.034 L64.922,21.707 L64.389,21.385 L63.818,21.071 L63.210,20.766 L62.566,20.471 L61.890,20.186 L61.182,19.914 L60.445,19.656 L59.681,19.412 L58.894,19.184 L58.085,18.972 L57.257,18.778 L56.415,18.603 L55.560,18.447 L54.697,18.311 L53.828,18.195 L52.957,18.100 L52.087,18.027 L51.222,17.975 L50.365,17.945 L49.519,17.937 L48.688,17.950 L47.874,17.984 L47.081,18.040 L46.310,18.116 L45.565,18.212 L44.849,18.327 L44.162,18.461 L43.508,18.614 L42.888,18.783 L42.304,18.968 L41.756,19.169 L41.247,19.384 L40.776,19.612 L40.345,19.853 L39.954,20.105 L39.604,20.367 L39.295,20.638 L39.026,20.917 L38.798,21.203 L38.609,21.495 L38.461,21.793 L38.352,22.094 L38.281,22.399 L38.247,22.706 L38.251,23.015 L38.290,23.324 L38.365,23.633 L38.473,23.942 L38.614,24.249 L38.786,24.553 L38.989,24.855 L39.222,25.153 L39.482,25.448 L39.770,25.738 L40.083,26.022 L40.421,26.302 L40.783,26.576 L41.167,26.843 L41.572,27.104 L41.997,27.358 L42.441,27.604 L42.902,27.843 L43.381,28.074 L43.875,28.298 L44.385,28.512 L44.907,28.719 L45.443,28.916 L45.990,29.105 L46.548,29.284 L47.116,29.455 L47.693,29.615 L48.278,29.767 L48.870,29.908 L49.468,30.040 L50.071,30.162 L50.680,30.273 L51.292,30.374 L51.906,30.466 L52.523,30.546 L53.141,30.616 L53.760,30.676 L54.378,30.724 L54.994,30.762 L55.608,30.789 L56.220,30.805 L56.827,30.809 L57.429,30.803 L58.026,30.785 L58.616,30.756 L59.199,30.715 L59.773,30.663 L60.337,30.600 L60.891,30.524 L61.434,30.437 L61.964,30.339 L62.480,30.229 L62.982,30.107 L63.468,29.973 L63.937,29.828 L64.388,29.671 L64.819,29.502 L65.230,29.322 L65.620,29.131 L65.986,28.928 L66.329,28.714 L66.645,28.489 L66.936,28.254 L67.198,28.008 L67.430,27.752 L67.633,27.486 L67.803,27.211 L67.941,26.927 L68.044,26.634 L68.112,26.333 L68.144,26.025 L68.138,25.710 L68.094,25.389 L68.011,25.063 L67.888,24.732 L67.724,24.397 L67.519,24.060 L67.272,23.721 L66.984,23.380 L66.654,23.041 L66.283,22.702 L65.870,22.366 L65.416,22.034 " stroke="#333333" stroke-opacity="0.563" stroke-width="1.0" />
  <path d="M71.186,17.767 L70.528,17.255 L69.806,16.750 L69.024,16.255 L68.181,15.772 L67.281,15.303 L66.325,14.852 L65.317,14.419 L64.260,14.008 L63.157,13.621 L62.014,13.259 L60.834,12.925 L59.622,12.620 L58.385,12.346 L57.126,12.105 L55.852,11.898 L54.569,11.725 L53.282,11.588 L51.997,11.488 L50.721,11.424 L49.459,11.397 L48.217,11.406 L46.999,11.452 L45.812,11.533 L44.659,11.649 L43.546,11.798 L42.477,11.979 L41.454,12.192 L40.483,12.434 L39.564,12.703 L38.701,12.999 L37.897,13.319 L37.151,13.661 L36.466,14.023 L35.842,14.404 L35.280,14.801 L34.779,15.213 L34.341,15.638 L33.963,16.073 L33.645,16.517 L33.387,16.969 L33.186,17.426 L33.042,17.887 L32.954,18.351 L32.918,18.816 L32.935,19.281 L33.001,19.745 L33.115,20.206 L33.276,20.664 L33.480,21.117 L33.727,21.565 L34.014,22.007 L34.339,22.442 L34.701,22.869 L35.097,23.287 L35.526,23.697 L35.986,24.098 L36.475,24.488 L36.992,24.869 L37.535,25.238 L38.102,25.597 L38.692,25.945 L39.303,26.281 L39.934,26.606 L40.584,26.918 L41.252,27.219 L41.935,27.507 L42.634,27.783 L43.346,28.046 L44.071,28.297 L44.807,28.535 L45.554,28.760 L46.311,28.972 L47.076,29.170 L47.849,29.356 L48.628,29.528 L49.414,29.687 L50.204,29.833 L50.999,29.965 L51.797,30.083 L52.597,30.188 L53.399,30.279 L54.202,30.355 L55.004,30.418 L55.806,30.467 L56.606,30.501 L57.403,30.521 L58.196,30.526 L58.985,30.517 L59.769,30.492 L60.546,30.453 L61.316,30.399 L62.078,30.329 L62.830,30.244 L63.571,30.143 L64.300,30.026 L65.017,29.894 L65.719,29.746 L66.406,29.581 L67.076,29.400 L67.727,29.203 L68.359,28.989 L68.969,28.758 L69.556,28.511 L70.118,28.248 L70.654,27.967 L71.161,27.670 L71.638,27.356 L72.084,27.026 L72.495,26.679 L72.870,26.317 L73.207,25.938 L73.504,25.544 L73.758,25.135 L73.968,24.712 L74.131,24.274 L74.246,23.823 L74.310,23.360 L74.321,22.885 L74.278,22.399 L74.178,21.904 L74.020,21.400 L73.803,20.889 L73.524,20.373 L73.183,19.853 L72.780,19.330 L72.312,18.807 L71.781,18.286 L71.186,17.767 " stroke="#333333" stroke-opacity="0.261" stroke-width="1.0" />
  <path d="M77.889,14.320 L77.074,13.573 L76.163,12.833 L75.159,12.104 L74.061,11.390 L72.874,10.694 L71.598,10.021 L70.239,9.375 L68.801,8.760 L67.290,8.179 L65.712,7.637 L64.073,7.137 L62.383,6.683 L60.649,6.277 L58.880,5.923 L57.086,5.622 L55.277,5.376 L53.462,5.188 L51.652,5.057 L49.855,4.985 L48.083,4.970 L46.344,5.013 L44.647,5.113 L43.001,5.268 L41.412,5.476 L39.888,5.735 L38.434,6.043 L37.057,6.396 L35.760,6.791 L34.548,7.226 L33.423,7.697 L32.386,8.201 L31.440,8.733 L30.586,9.291 L29.822,9.872 L29.149,10.472 L28.564,11.088 L28.068,11.717 L27.657,12.356 L27.330,13.002 L27.084,13.653 L26.916,14.307 L26.822,14.961 L26.801,15.613 L26.848,16.261 L26.961,16.905 L27.137,17.541 L27.371,18.169 L27.662,18.788 L28.005,19.397 L28.398,19.994 L28.838,20.579 L29.322,21.151 L29.847,21.709 L30.411,22.253 L31.011,22.783 L31.644,23.298 L32.309,23.797 L33.004,24.282 L33.725,24.750 L34.472,25.202 L35.243,25.639 L36.035,26.059 L36.847,26.463 L37.678,26.851 L38.526,27.223 L39.390,27.578 L40.269,27.918 L41.161,28.241 L42.065,28.547 L42.980,28.838 L43.905,29.112 L44.840,29.370 L45.783,29.612 L46.733,29.837 L47.689,30.047 L48.652,30.240 L49.619,30.417 L50.590,30.577 L51.565,30.721 L52.543,30.849 L53.522,30.960 L54.503,31.055 L55.484,31.132 L56.465,31.193 L57.445,31.237 L58.423,31.263 L59.398,31.273 L60.371,31.264 L61.338,31.238 L62.301,31.194 L63.257,31.131 L64.207,31.050 L65.148,30.950 L66.080,30.831 L67.001,30.692 L67.911,30.534 L68.808,30.356 L69.690,30.157 L70.556,29.937 L71.404,29.697 L72.233,29.435 L73.040,29.151 L73.825,28.846 L74.584,28.518 L75.316,28.167 L76.018,27.794 L76.688,27.398 L77.323,26.978 L77.921,26.535 L78.478,26.069 L78.992,25.579 L79.459,25.067 L79.877,24.531 L80.241,23.972 L80.550,23.391 L80.798,22.789 L80.983,22.166 L81.101,21.522 L81.149,20.859 L81.123,20.179 L81.020,19.483 L80.836,18.771 L80.568,18.047 L80.214,17.313 L79.771,16.570 L79.237,15.822 L78.610,15.071 L77.889,14.320 " stroke="#333333" stroke-opacity="0.065" stroke-width="1.0" />
</svg>