<?xml version="1.0" encoding="utf-8"?>
<!-- Generator: Adobe Illustrator 22.0.0, SVG Export Plug-In . SVG Version: 6.00 Build 0)  -->
<svg version="1.1" id="Layer_1" xmlns="http://www.w3.org/2000/svg" xmlns:xlink="http://www.w3.org/1999/xlink" x="0px" y="0px"
	 viewBox="0 0 100 100" style="enable-background:new 0 0 100 100;" xml:space="preserve">
<style type="text/css">
	.st0{fill:none;stroke:#1C1B1B;stroke-linecap:round;stroke-linejoin:round;stroke-opacity:6.500000e-02;}
	.st1{fill:none;stroke:#1C1B1B;stroke-linecap:round;stroke-linejoin:round;stroke-opacity:0.261;}
	.st2{fill:none;stroke:#1C1B1B;stroke-linecap:round;stroke-linejoin:round;stroke-opacity:0.562;}
	.st3{fill:none;stroke:#1C1B1B;stroke-linecap:round;stroke-linejoin:round;stroke-opacity:0.924;}
	.st4{fill:none;stroke:#1C1B1B;stroke-linecap:round;stroke-linejoin:round;}
	.st5{fill:none;stroke:#1C1B1B;stroke-linecap:round;stroke-linejoin:round;stroke-opacity:0.563;}
</style>
<path class="st0" d="M39.9,94.6l-0.9-0.4l-1-0.5l-1.1-0.6l-1.1-0.7l-1.2-0.8l-1.3-0.9L32,89.8l-1.3-1l-1.4-1.1l-1.4-1.2l-1.4-1.2
	l-1.5-1.3l-1.5-1.4L22,81.2l-1.5-1.4l-1.4-1.5l-1.4-1.5l-1.4-1.5l-1.3-1.5l-1.3-1.5l-1.2-1.5l-1.2-1.5l-1.1-1.5l-1-1.4l-1-1.4
	l-0.9-1.3l-0.8-1.3l-0.7-1.2L5.2,60L4.6,59l-0.5-1L3.8,57l-0.3-0.9l-0.2-0.8l-0.1-0.7L3.1,54l0-0.6l0.1-0.5l0.1-0.4l0.2-0.4l0.2-0.3
	L4,51.6l0.3-0.2l0.4-0.1l0.4-0.1l0.5,0l0.5,0l0.5,0.1l0.6,0.1l0.6,0.2l0.6,0.2l0.6,0.3l0.7,0.3l0.7,0.3l0.7,0.4l0.7,0.4l0.7,0.4
	l0.7,0.4l0.7,0.5l0.7,0.5l0.8,0.5l0.8,0.5l0.8,0.6l0.8,0.6l0.8,0.6l0.8,0.6l0.8,0.6l0.8,0.6l0.8,0.7l0.8,0.7l0.8,0.7l0.8,0.7
	l0.8,0.7l0.8,0.7l0.8,0.7l0.8,0.7l0.7,0.7l0.7,0.7l0.7,0.7l0.7,0.8l0.7,0.8l0.7,0.8l0.7,0.8l0.7,0.8l0.7,0.8l0.7,0.8l0.7,0.8
	l0.7,0.8l0.7,0.8l0.6,0.8l0.6,0.8l0.6,0.8l0.6,0.8l0.6,0.8l0.6,0.8l0.6,0.8l0.5,0.8l0.5,0.8l0.5,0.8l0.5,0.8l0.5,0.8l0.4,0.8
	l0.4,0.7l0.4,0.7l0.4,0.7l0.3,0.7l0.3,0.7l0.3,0.7l0.2,0.6l0.2,0.6l0.1,0.6l0.1,0.6l0.1,0.5l0,0.5l0,0.5l-0.1,0.4l-0.2,0.4l-0.2,0.3
	l-0.3,0.3l-0.3,0.2l-0.4,0.2l-0.5,0.1l-0.5,0l-0.6,0l-0.7-0.1l-0.7-0.2L40.8,95L39.9,94.6"/>
<path class="st1" d="M37.4,87.2l-0.7-0.4l-0.7-0.4l-0.8-0.5l-0.8-0.6l-0.9-0.6L32.5,84l-0.9-0.7l-1-0.8l-1-0.8l-1-0.9l-1-0.9l-1-0.9
	l-1-1l-1-1l-1-1l-1-1l-1-1l-1-1.1l-0.9-1.1l-0.9-1.1l-0.9-1l-0.8-1l-0.8-1l-0.8-1l-0.7-1l-0.7-0.9l-0.6-0.9L12.9,63l-0.5-0.8
	L12,61.3l-0.4-0.8l-0.3-0.7l-0.3-0.7l-0.2-0.6l-0.2-0.6l-0.1-0.5l-0.1-0.5l0-0.4l0-0.4l0.1-0.3l0.1-0.3l0.1-0.2l0.2-0.2l0.2-0.1
	l0.2-0.1l0.3-0.1l0.3,0l0.3,0l0.4,0.1l0.4,0.1l0.4,0.1l0.4,0.2l0.5,0.2l0.5,0.2l0.5,0.3l0.5,0.3l0.5,0.3l0.5,0.3l0.6,0.4l0.6,0.4
	l0.6,0.4l0.6,0.4l0.6,0.4l0.6,0.4l0.6,0.5l0.6,0.5l0.6,0.5l0.6,0.5l0.6,0.5l0.6,0.5l0.6,0.5l0.6,0.6l0.6,0.6l0.6,0.6l0.6,0.6
	l0.6,0.6l0.6,0.6l0.6,0.6l0.6,0.6l0.6,0.6l0.6,0.6l0.6,0.6l0.6,0.6l0.6,0.6l0.6,0.6l0.6,0.6l0.6,0.6l0.5,0.6l0.5,0.6l0.5,0.6
	l0.5,0.6l0.5,0.6l0.5,0.6l0.5,0.6l0.5,0.6l0.4,0.6l0.4,0.6l0.4,0.6l0.4,0.6l0.4,0.6l0.3,0.6l0.3,0.6l0.3,0.6l0.3,0.5l0.3,0.5
	l0.2,0.5l0.2,0.5l0.2,0.5l0.1,0.4l0.1,0.4l0.1,0.4l0,0.4l0,0.3l0,0.3l-0.1,0.3l-0.1,0.2L42.1,88l-0.2,0.2l-0.2,0.1l-0.3,0.1l-0.3,0
	l-0.4,0l-0.4-0.1l-0.5-0.1L39.2,88l-0.6-0.2L38,87.5L37.4,87.2"/>
<path class="st2" d="M36.5,79.8L36,79.5l-0.5-0.4l-0.5-0.4l-0.6-0.4l-0.6-0.5l-0.6-0.5l-0.6-0.5l-0.6-0.5l-0.6-0.6l-0.7-0.6
	l-0.7-0.6L29.3,74l-0.7-0.7l-0.7-0.7L27.2,72l-0.7-0.7l-0.7-0.7l-0.6-0.7l-0.6-0.7L24,68.5l-0.6-0.7l-0.6-0.7l-0.6-0.7l-0.5-0.7
	l-0.5-0.7l-0.5-0.6l-0.5-0.6l-0.4-0.6l-0.4-0.6l-0.4-0.5l-0.3-0.5l-0.3-0.5l-0.3-0.5L18,60.2l-0.2-0.4l-0.2-0.4l-0.1-0.3l-0.1-0.3
	l-0.1-0.3l0-0.2l0-0.2l0-0.2l0.1-0.2l0.1-0.1l0.1-0.1l0.1-0.1l0.2,0l0.2,0l0.2,0l0.2,0l0.3,0.1l0.3,0.1l0.3,0.1l0.3,0.1l0.3,0.2
	l0.3,0.2l0.4,0.2l0.4,0.2l0.4,0.3l0.4,0.3l0.4,0.3l0.4,0.3l0.4,0.3l0.4,0.3l0.4,0.3l0.4,0.4l0.5,0.4l0.5,0.4l0.5,0.4l0.5,0.4
	l0.5,0.4l0.5,0.4l0.5,0.4l0.5,0.4l0.5,0.5l0.5,0.5l0.5,0.5l0.5,0.5l0.5,0.5l0.5,0.5l0.5,0.5l0.5,0.5l0.4,0.5l0.4,0.5l0.4,0.5
	l0.4,0.5l0.4,0.5l0.4,0.5l0.4,0.5l0.4,0.5l0.4,0.5l0.4,0.5l0.4,0.5l0.4,0.5l0.3,0.5l0.3,0.5l0.3,0.4l0.3,0.4l0.3,0.4l0.3,0.4
	l0.2,0.4l0.2,0.4l0.2,0.4l0.2,0.4l0.2,0.3l0.1,0.3l0.1,0.3l0.1,0.3l0.1,0.3l0.1,0.3l0,0.2l0,0.2l0,0.2l0,0.2l-0.1,0.1L40.1,81
	l-0.1,0.1l-0.2,0l-0.2,0l-0.2,0l-0.3,0L38.8,81l-0.3-0.1l-0.3-0.1l-0.4-0.2l-0.4-0.2l-0.4-0.3L36.5,79.8"/>
<path class="st3" d="M36.9,72.9l-0.3-0.2l-0.3-0.3l-0.3-0.3l-0.3-0.3l-0.4-0.3l-0.4-0.3l-0.4-0.3l-0.4-0.4l-0.4-0.4l-0.4-0.4
	l-0.4-0.4L32.4,69L32,68.6l-0.4-0.4l-0.4-0.4l-0.4-0.4l-0.4-0.4L30,66.4L29.6,66l-0.4-0.4l-0.4-0.4l-0.4-0.4l-0.4-0.4l-0.3-0.4
	l-0.3-0.4l-0.3-0.4l-0.3-0.4l-0.3-0.4L26.2,62l-0.3-0.3l-0.2-0.3L25.5,61l-0.2-0.3l-0.2-0.3l-0.2-0.3l-0.1-0.2l-0.1-0.2l-0.1-0.2
	l-0.1-0.2l-0.1-0.2l0-0.1l0-0.1l0-0.1l0-0.1l0-0.1l0.1,0l0.1,0l0.1,0l0.1,0l0.1,0l0.1,0l0.2,0.1l0.2,0.1l0.2,0.1l0.2,0.1l0.2,0.1
	l0.2,0.1l0.2,0.2l0.2,0.2l0.3,0.2l0.3,0.2l0.3,0.2l0.3,0.2l0.3,0.2l0.3,0.2l0.3,0.3l0.3,0.3l0.3,0.3l0.3,0.3l0.3,0.3l0.3,0.3
	l0.3,0.3l0.3,0.3l0.3,0.3l0.3,0.3l0.3,0.3l0.3,0.3l0.3,0.3l0.3,0.3l0.3,0.3l0.3,0.3l0.3,0.3l0.3,0.3l0.3,0.3l0.3,0.3l0.3,0.3
	l0.3,0.3l0.3,0.3l0.3,0.3l0.3,0.3l0.3,0.3l0.3,0.3l0.3,0.3l0.2,0.3l0.2,0.3l0.2,0.3l0.2,0.3l0.2,0.3l0.2,0.3l0.2,0.3l0.2,0.3
	l0.2,0.2l0.1,0.2l0.1,0.2l0.1,0.2l0.1,0.2l0.1,0.2l0.1,0.2l0.1,0.2l0,0.1l0,0.1l0,0.1l0,0.1l0,0.1l-0.1,0l-0.1,0l-0.1,0l-0.1,0
	l-0.1,0L38.8,74L38.6,74l-0.2-0.1l-0.2-0.1L38,73.6l-0.2-0.2l-0.3-0.2l-0.3-0.2L36.9,72.9"/>
<path class="st4" d="M38.5,66.4l-0.2-0.1l-0.2-0.2L38,66l-0.2-0.2l-0.2-0.2l-0.2-0.2l-0.2-0.2L37,65l-0.2-0.2l-0.2-0.2l-0.2-0.2
	l-0.2-0.2l-0.2-0.2l-0.2-0.2l-0.2-0.2l-0.2-0.2l-0.2-0.2l-0.2-0.2l-0.2-0.2l-0.2-0.2L34,62l-0.2-0.2l-0.2-0.2l-0.2-0.2l-0.2-0.2
	L33,60.8l-0.2-0.2l-0.2-0.2l-0.2-0.2L32.3,60l-0.2-0.2L32,59.7l-0.1-0.2l-0.1-0.2l-0.1-0.1l-0.1-0.1L31.5,59l-0.1-0.1l-0.1-0.1
	l-0.1-0.1l0-0.1l0-0.1l0-0.1l0,0l0,0l0,0l0,0l0,0l0,0l0.1,0l0.1,0l0.1,0l0.1,0l0.1,0.1l0.1,0.1l0.1,0.1l0.1,0.1l0.1,0.1l0.1,0.1
	l0.1,0.1l0.1,0.1l0.1,0.1l0.2,0.1l0.2,0.1l0.2,0.2l0.2,0.2l0.2,0.2l0.2,0.2l0.2,0.2l0.2,0.2l0.2,0.2l0.2,0.2l0.2,0.2l0.2,0.2
	l0.2,0.2l0.2,0.2l0.2,0.2l0.2,0.2l0.2,0.2l0.2,0.2l0.2,0.2l0.2,0.2l0.2,0.2l0.2,0.2l0.2,0.2l0.2,0.2l0.2,0.2l0.2,0.2l0.2,0.2
	l0.2,0.2l0.2,0.2l0.2,0.2l0.2,0.2l0.2,0.2l0.1,0.2l0.1,0.2l0.1,0.2L39,66l0.1,0.2l0.1,0.1l0.1,0.1l0.1,0.1l0.1,0.1l0.1,0.1l0.1,0.1
	l0.1,0.1l0.1,0.1l0,0.1l0,0.1l0,0.1l0,0l0,0l0,0l0,0l0,0l0,0l-0.1,0l-0.1,0l-0.1,0l-0.1-0.1l-0.1-0.1l-0.1-0.1L39.2,67l-0.1-0.1
	L39,66.8l-0.1-0.1l-0.2-0.1L38.5,66.4"/>
<path class="st4" d="M41.1,60.6L41.1,60.6l-0.2-0.2l-0.1-0.1l-0.1-0.1l-0.1-0.1L40.6,60l-0.1-0.1l-0.1-0.1l-0.1-0.1l-0.1-0.1
	l-0.1-0.1L40,59.4l-0.1-0.1l-0.1-0.1l-0.1-0.1L39.5,59l-0.1-0.1l-0.1-0.1l-0.1-0.1l-0.1-0.1L39,58.4l-0.1-0.1l-0.1-0.1l-0.1-0.1
	L38.6,58l-0.1-0.1l-0.1-0.1l-0.1-0.1l-0.1-0.1l-0.1-0.1l-0.1-0.1L38,57.3l-0.1-0.1l-0.1-0.1l-0.1-0.1l-0.1-0.1L37.7,57l0-0.1l0,0
	l0,0l0,0l0,0l0,0l0,0l0,0l0,0l0,0l0,0l0,0l0,0l0,0l0,0l0,0l0,0l0,0l0,0l0,0l0.1,0l0.1,0.1l0.1,0.1l0.1,0.1l0.1,0.1l0.1,0.1l0.1,0.1
	l0.1,0.1l0.1,0.1l0.1,0.1l0.1,0.1l0.1,0.1l0.1,0.1l0.1,0.1l0.1,0.1l0.1,0.1l0.1,0.1l0.1,0.1l0.1,0.1l0.1,0.1l0.1,0.1l0.1,0.1
	l0.1,0.1l0.1,0.1l0.1,0.1l0.1,0.1l0.1,0.1l0.1,0.1l0.1,0.1l0.1,0.1l0.1,0.1l0.1,0.1l0.1,0.1l0.1,0.1l0.1,0.1l0.1,0.1l0.1,0.1
	l0.1,0.1l0.1,0.1L41.1,60.6l0.1,0l0.1,0.1l0.1,0.1l0.1,0.1l0.1,0.1l0,0.1l0,0l0,0l0,0l0,0l0,0l0,0l0,0l0,0l0,0l0,0l0,0l0,0l0,0l0,0
	l0,0l0,0l0,0l0,0l0,0l-0.1,0l-0.1-0.1l-0.1-0.1l-0.1-0.1L41.1,60.6L41.1,60.6"/>
<path class="st4" d="M44.5,55.3L44.5,55.3L44.5,55.3L44.5,55.3l-0.1-0.1l0,0l0,0l0,0l0,0l0,0l0,0l0,0l0,0l0,0l0,0l0,0l0,0l0,0l0,0
	l0,0l0,0l0,0l0,0l0,0l0,0l0,0l0,0l0,0l0,0l0,0l0,0l0,0l0,0l0,0l0,0l0,0l0,0l0,0l0,0l0,0l0,0l0,0l0,0l0,0l0,0l0,0l0,0l0,0l0,0l0,0
	l0,0l0,0l0,0l0,0l0,0l0,0l0,0l0,0l0,0l0,0l0,0l0,0l0,0l0,0l0,0l0,0l0,0l0,0l0,0l0,0l0,0l0,0l0,0l0,0l0,0l0,0l0,0l0,0l0,0l0,0l0,0
	l0,0l0,0l0,0l0,0l0,0l0,0l0,0l0,0l0,0l0,0l0,0l0,0l0,0l0,0L44.5,55.3L44.5,55.3L44.5,55.3l0,0.1l0,0l0,0l0,0l0,0l0,0l0,0l0,0l0,0
	l0,0l0,0l0,0l0,0l0,0l0,0l0,0l0,0l0,0l0,0l0,0l0,0l0,0l0,0l0,0l0,0l0,0l0,0L44.5,55.3L44.5,55.3L44.5,55.3L44.5,55.3"/>
<path class="st4" d="M48.7,50.6L48.7,50.6L48.7,50.6L48.7,50.6L48.7,50.6L48.7,50.6L48.7,50.6L48.7,50.6l-0.1-0.1l0,0l0,0l0,0l0,0
	l0,0l0,0l0,0l0,0l0,0l0,0l0,0l0,0l0,0l0,0l0,0l0,0l0,0l0,0l0,0l0,0l0,0l0,0l0,0l0,0l0,0l0,0l0,0l0,0l0,0l0,0l0,0l0,0l0,0l0,0l0,0
	l0,0l0,0l0,0l0,0l0,0l0,0l0,0l0,0l0,0l0,0l0,0l0,0l0,0l0,0l0,0l0,0l0,0l0,0l0,0l0,0l0,0l0,0l0,0l0,0l0,0l0,0l0,0l0,0l0,0l0,0l0,0
	l0,0l0,0l0,0l0,0l0,0l0,0l0,0l0,0l0,0l0,0l0,0l0,0l0,0l0,0l0,0l0,0l0,0l0,0L48.7,50.6L48.7,50.6L48.7,50.6L48.7,50.6L48.7,50.6
	L48.7,50.6L48.7,50.6L48.7,50.6L48.7,50.6l0,0.1l0,0l0,0l0,0l0,0l0,0l0,0l0,0l0,0l0,0l0,0l0,0l0,0l0,0l0,0l0,0L48.7,50.6L48.7,50.6
	L48.7,50.6L48.7,50.6L48.7,50.6L48.7,50.6L48.7,50.6L48.7,50.6L48.7,50.6L48.7,50.6L48.7,50.6"/>
<path class="st4" d="M53.5,46.6L53.5,46.6L53.5,46.6l-0.1-0.1l0,0l0,0l0,0l0,0l0,0l0,0l0,0l0,0l0,0l0,0l0,0l0,0l0,0l0,0l0,0l0,0l0,0
	l0,0l0,0l0,0l0,0l0,0l0,0l0,0l0,0l0,0l0,0l0,0l0,0l0,0l0,0l0,0l0,0l0,0l0,0l0,0l0,0l0,0l0,0l0,0l0,0l0,0l0,0l0,0l0,0l0,0l0,0l0,0
	l0,0l0,0l0,0l0,0l0,0l0,0l0,0l0,0l0,0l0,0l0,0l0,0l0,0l0,0l0,0l0,0l0,0l0,0l0,0l0,0l0,0l0,0l0,0l0,0l0,0l0,0l0,0l0,0l0,0l0,0l0,0
	l0,0l0,0l0,0l0,0l0,0l0,0l0,0l0,0l0,0l0,0l0,0l0,0l0,0l0,0l0,0l0,0l0,0l0,0l0,0l0,0l0,0l0,0l0,0l0,0l0,0l0,0l0,0l0,0l0,0l0,0l0,0
	l0,0l0,0l0,0l0,0l0,0l0,0l0,0l0,0l0,0l0,0l0,0L53.5,46.6L53.5,46.6L53.5,46.6L53.5,46.6"/>
<path class="st4" d="M58.9,43.3L58.9,43.3l-0.1-0.2L58.7,43l-0.1-0.1l-0.1-0.1l-0.1-0.1l-0.1-0.1l-0.1-0.1l-0.1-0.1l-0.1-0.1
	L58,42.2l-0.1-0.1L57.8,42l-0.1-0.1l-0.1-0.1l-0.1-0.1l-0.1-0.1l-0.1-0.1l-0.1-0.1l-0.1-0.1L57,41.1L56.9,41l-0.1-0.1l-0.1-0.1
	l-0.1-0.1l-0.1-0.1l-0.1-0.1l-0.1-0.1l-0.1-0.1l-0.1-0.1L56,40.3l-0.1-0.1l-0.1-0.1l-0.1,0l-0.1,0l-0.1,0l-0.1,0l-0.1,0l-0.1,0
	l-0.1,0l-0.1,0l-0.1,0l-0.1,0l0,0l0,0l0,0l0,0l0,0l0,0l0,0l0,0l0,0l0,0.1l0,0.1l0,0.1l0,0.1l0,0.1l0,0.1l0,0.1l0,0.1l0,0.1l0,0.1
	l0,0.1l0.1,0.1l0.1,0.1l0.1,0.1l0.1,0.1l0.1,0.1l0.1,0.1l0.1,0.1l0.1,0.1l0.1,0.1l0.1,0.1l0.1,0.1l0.1,0.1l0.1,0.1l0.1,0.1l0.1,0.1
	l0.1,0.1l0.1,0.1l0.1,0.1l0.1,0.1l0.1,0.1l0.1,0.1l0.1,0.1l0.1,0.1l0.1,0.1l0.1,0.1l0.1,0.1l0.1,0.1l0.1,0.1l0.1,0.1l0.1,0.1
	l0.1,0.1l0.1,0.1L58,44l0.1,0.1l0.1,0l0.1,0l0.1,0l0.1,0l0.1,0l0.1,0l0.1,0l0.1,0l0.1,0l0.1,0l0.1,0l0,0l0,0l0,0l0,0l0,0l0,0l0,0
	l0,0l0,0l0-0.1l0-0.1l0-0.1l0-0.1l0-0.1l0-0.1l0-0.1l0-0.1l0-0.1L58.9,43.3L58.9,43.3"/>
<path class="st4" d="M64.8,40.8l-0.1-0.2l-0.1-0.2l-0.1-0.2L64.3,40l-0.1-0.2L64,39.5l-0.2-0.2L63.7,39l-0.2-0.2l-0.2-0.2l-0.2-0.2
	L63,38.1l-0.2-0.2l-0.2-0.2l-0.2-0.2l-0.2-0.2l-0.2-0.2l-0.2-0.2l-0.2-0.2l-0.2-0.2L61,36.1l-0.2-0.2l-0.2-0.2l-0.2-0.2l-0.2-0.2
	l-0.2-0.2L59.6,35l-0.2-0.1l-0.2-0.1L59,34.6l-0.2-0.1l-0.2-0.1l-0.2-0.1l-0.2-0.1L58,34.2l-0.2-0.1l-0.2,0l-0.2,0l-0.1,0l-0.1,0
	l-0.1,0L57,34l-0.1,0l-0.1,0l-0.1,0l-0.1,0.1l-0.1,0.1l-0.1,0.1l0,0.1l0,0.1l0,0.1l0,0.1l0,0.1l0,0.1l0,0.1l0,0.1l0,0.2l0,0.2
	l0.1,0.2l0.1,0.2l0.1,0.2l0.1,0.2l0.1,0.2l0.1,0.2l0.1,0.2l0.1,0.2l0.1,0.2l0.1,0.2l0.1,0.2l0.1,0.2l0.1,0.2l0.2,0.2l0.2,0.2
	l0.2,0.2l0.2,0.2l0.2,0.2l0.2,0.2l0.2,0.2l0.2,0.2l0.2,0.2l0.2,0.2l0.2,0.2l0.2,0.2l0.2,0.2l0.2,0.2l0.2,0.2l0.2,0.2l0.2,0.2
	l0.2,0.2l0.2,0.2l0.2,0.1l0.2,0.1l0.2,0.1l0.2,0.1l0.2,0.1l0.2,0.1l0.2,0.1l0.2,0.1l0.2,0.1l0.2,0.1l0.2,0.1l0.2,0.1l0.2,0l0.1,0
	l0.1,0l0.1,0l0.1,0l0.1,0l0.1,0l0.1,0l0.1,0l0.1,0l0.1-0.1l0.1-0.1l0.1-0.1l0-0.1l0-0.1l0-0.1l0-0.1l0-0.1l0-0.1l0-0.1l0-0.2l0-0.2
	L65,41.4l-0.1-0.2L64.9,41L64.8,40.8"/>
<path class="st3" d="M71.2,39.1L71,38.8l-0.2-0.4L70.7,38l-0.2-0.4l-0.2-0.4L70,36.8l-0.3-0.4L69.5,36l-0.3-0.4l-0.3-0.4l-0.3-0.4
	l-0.3-0.4l-0.3-0.4l-0.4-0.4l-0.4-0.4l-0.4-0.4l-0.4-0.4L66,31.9l-0.4-0.4l-0.4-0.4l-0.4-0.3l-0.4-0.3l-0.4-0.3l-0.4-0.3l-0.4-0.3
	l-0.4-0.3L62.3,29l-0.4-0.2l-0.4-0.2l-0.4-0.2l-0.4-0.2l-0.4-0.1l-0.3-0.1l-0.3-0.1l-0.3-0.1l-0.3-0.1l-0.3,0l-0.3,0l-0.3,0l-0.2,0
	l-0.2,0l-0.2,0.1l-0.2,0.1l-0.2,0.1L57.2,28l-0.1,0.1L57,28.3l-0.1,0.2l-0.1,0.2l-0.1,0.2l0,0.2l0,0.2l0,0.2l0,0.2l0,0.3l0,0.3
	l0.1,0.3l0.1,0.3l0.1,0.3l0.1,0.3l0.1,0.3l0.1,0.3l0.1,0.3l0.2,0.3l0.2,0.3l0.2,0.3l0.2,0.3l0.2,0.3l0.2,0.3l0.2,0.3L59,35l0.2,0.3
	l0.3,0.3l0.3,0.3l0.3,0.3l0.3,0.3l0.3,0.3l0.3,0.3l0.3,0.3l0.3,0.3l0.3,0.3l0.3,0.3l0.3,0.3l0.3,0.3l0.3,0.3l0.3,0.3l0.3,0.3
	l0.3,0.3l0.3,0.3l0.3,0.2l0.3,0.2l0.3,0.2l0.3,0.2l0.3,0.2l0.3,0.2l0.3,0.2l0.3,0.2l0.3,0.1l0.3,0.1l0.3,0.1l0.3,0.1l0.3,0.1
	l0.3,0.1l0.3,0.1l0.3,0l0.2,0l0.2,0l0.2,0l0.2,0l0.2,0l0.2-0.1l0.2-0.1l0.2-0.1l0.1-0.1l0.1-0.1l0.1-0.2l0.1-0.2l0.1-0.2l0.1-0.2
	l0-0.2l0-0.2l0-0.3l0-0.3l0-0.3l-0.1-0.3l-0.1-0.3l-0.1-0.3L71.2,39.1"/>
<path class="st5" d="M78,38.4l-0.2-0.6l-0.2-0.6l-0.2-0.6L77.1,36l-0.3-0.6l-0.3-0.6l-0.4-0.7l-0.4-0.7l-0.4-0.7l-0.5-0.7l-0.5-0.7
	l-0.5-0.7L73.2,30l-0.6-0.7L72,28.7l-0.6-0.6l-0.6-0.6l-0.6-0.6l-0.6-0.6l-0.6-0.6l-0.7-0.5l-0.7-0.5l-0.7-0.5l-0.7-0.5l-0.6-0.4
	L65,22.9l-0.6-0.4l-0.6-0.3l-0.6-0.3l-0.6-0.3L62,21.5l-0.6-0.2l-0.5-0.2L60.4,21l-0.5-0.1l-0.5,0l-0.4,0l-0.4,0l-0.4,0L57.8,21
	l-0.3,0.1l-0.3,0.1l-0.3,0.2l-0.2,0.2l-0.2,0.2l-0.2,0.2l-0.2,0.3L56,22.6l-0.1,0.3l-0.1,0.3l-0.1,0.3l0,0.4l0,0.4l0,0.4l0,0.4
	l0.1,0.4l0.1,0.4l0.1,0.4l0.1,0.4l0.2,0.5l0.2,0.5l0.2,0.5l0.2,0.5l0.2,0.5l0.2,0.5l0.3,0.5l0.3,0.5l0.3,0.5l0.3,0.5l0.3,0.5
	l0.3,0.5l0.3,0.5l0.4,0.5l0.4,0.5l0.4,0.5L61,35l0.4,0.5l0.4,0.5l0.4,0.5l0.4,0.5l0.4,0.4l0.4,0.4l0.5,0.4l0.5,0.4l0.5,0.4l0.5,0.4
	l0.5,0.4l0.5,0.4l0.5,0.4l0.5,0.3l0.5,0.3l0.5,0.3l0.5,0.3l0.5,0.3l0.5,0.3l0.5,0.3l0.5,0.2l0.5,0.2l0.5,0.2l0.5,0.2l0.4,0.2
	l0.4,0.1l0.4,0.1l0.4,0.1l0.4,0.1l0.4,0l0.4,0l0.4,0l0.4,0l0.3-0.1l0.3-0.1l0.3-0.1l0.3-0.1l0.3-0.2l0.2-0.2l0.2-0.2l0.2-0.2
	l0.2-0.3l0.1-0.3l0.1-0.3l0.1-0.4l0.1-0.4l0-0.4l0-0.4l0-0.5l-0.1-0.5l-0.1-0.5L78,38.4"/>
<path class="st1" d="M85.2,38.7L85,37.9L84.8,37l-0.3-0.9l-0.4-0.9l-0.4-0.9l-0.5-1l-0.5-1l-0.6-1l-0.6-1l-0.7-1l-0.7-1l-0.8-1
	l-0.8-1l-0.8-1l-0.9-1l-0.9-0.9l-0.9-0.9l-0.9-0.9l-1-0.9l-1-0.8l-1-0.8l-1-0.7l-1-0.7l-1-0.6l-1-0.6l-0.9-0.5l-0.9-0.5l-0.9-0.4
	l-0.9-0.4l-0.9-0.3l-0.8-0.3l-0.8-0.2l-0.8-0.1l-0.7-0.1l-0.7,0l-0.6,0l-0.6,0.1L57.3,14l-0.5,0.1l-0.5,0.2l-0.4,0.2l-0.4,0.3
	l-0.4,0.3l-0.3,0.3l-0.3,0.4l-0.2,0.4l-0.2,0.4l-0.2,0.5l-0.1,0.5l-0.1,0.5l-0.1,0.5l0,0.5l0,0.6l0,0.6l0.1,0.6l0.1,0.6l0.1,0.6
	l0.2,0.6l0.2,0.6l0.2,0.6l0.2,0.6l0.3,0.6l0.3,0.6l0.3,0.7l0.3,0.7l0.3,0.7l0.4,0.7l0.4,0.7l0.4,0.7l0.4,0.6l0.4,0.6l0.5,0.6
	l0.5,0.6l0.5,0.6l0.5,0.6l0.5,0.6l0.5,0.6l0.5,0.6l0.5,0.6l0.6,0.6l0.6,0.6l0.6,0.6l0.6,0.6l0.6,0.5l0.6,0.5l0.6,0.5l0.6,0.5
	l0.6,0.5l0.6,0.5l0.6,0.5l0.6,0.4l0.6,0.4l0.6,0.4l0.6,0.4l0.6,0.4l0.6,0.3l0.6,0.3l0.6,0.3l0.6,0.3l0.6,0.3l0.6,0.2l0.6,0.2
	l0.6,0.2l0.6,0.1l0.6,0.1l0.6,0.1l0.6,0.1l0.6,0l0.5,0l0.5,0l0.5-0.1l0.5-0.1l0.5-0.2l0.4-0.2l0.4-0.2l0.4-0.3l0.3-0.3l0.3-0.4
	l0.3-0.4l0.2-0.4l0.2-0.5l0.2-0.5l0.1-0.6l0.1-0.6l0-0.7l0-0.7l-0.1-0.7L85.2,38.7"/>
<path class="st0" d="M92.6,40.2l-0.2-1.1L92.2,38l-0.3-1.2l-0.4-1.2l-0.5-1.3l-0.6-1.3l-0.7-1.4L89,30.2l-0.8-1.4l-0.9-1.4l-1-1.4
	l-1-1.4l-1.1-1.4l-1.2-1.4l-1.2-1.4L80.6,19l-1.3-1.3L78,16.5l-1.4-1.2l-1.4-1.1l-1.4-1.1l-1.4-1l-1.4-0.9l-1.4-0.8l-1.3-0.8L67.1,9
	l-1.3-0.6l-1.3-0.5l-1.2-0.4l-1.2-0.3L61,6.8L60,6.7l-1-0.1l-1,0l-0.9,0l-0.8,0.1l-0.8,0.2l-0.7,0.2l-0.7,0.3l-0.6,0.4l-0.5,0.4
	l-0.5,0.4L52,9.1l-0.4,0.5l-0.3,0.6l-0.3,0.6l-0.2,0.6l-0.2,0.7l-0.1,0.7l-0.1,0.7l0,0.7l0,0.7l0.1,0.8l0.1,0.8l0.1,0.8l0.2,0.8
	l0.2,0.8l0.2,0.8l0.3,0.8l0.3,0.8l0.3,0.8l0.4,0.8l0.4,0.8l0.4,0.8l0.4,0.8l0.4,0.8l0.5,0.8l0.5,0.8l0.5,0.8l0.5,0.8l0.5,0.8
	l0.6,0.8l0.6,0.8l0.6,0.8l0.6,0.8l0.6,0.8l0.6,0.7l0.7,0.7l0.7,0.7l0.7,0.7l0.7,0.7l0.7,0.7l0.7,0.7l0.7,0.7l0.7,0.7l0.7,0.6
	l0.8,0.6l0.8,0.6l0.8,0.6l0.8,0.6l0.8,0.6l0.8,0.5l0.8,0.5l0.8,0.5l0.8,0.5l0.8,0.4l0.8,0.4l0.8,0.4l0.8,0.4l0.8,0.3l0.8,0.3
	l0.8,0.3l0.8,0.3l0.8,0.2l0.8,0.2l0.8,0.2l0.8,0.1l0.8,0.1l0.7,0l0.7,0l0.7-0.1l0.7-0.1l0.7-0.2l0.6-0.2l0.6-0.3l0.6-0.3l0.5-0.4
	l0.5-0.4l0.5-0.5l0.4-0.5l0.4-0.6l0.3-0.7l0.2-0.7l0.2-0.8l0.1-0.9l0.1-0.9l0-1L92.6,40.2"/>
</svg>
